<svg version="1.2" xmlns="http://www.w3.org/2000/svg" viewBox="0 0 1696 1696" width="1696" height="1696">
	<title>2kfclogo-_2_-svg</title>
	<style>
		.s0 { fill: #ffffff } 
	</style>
	<g id="Layer">
		<path id="Layer" class="s0" d="m876.9 108.7c-9.8 1.2-28.8 6.9-34.5 10.4-3.1 1.9-11.4 12.1-11.4 14 0 0.5-0.6 2-1.4 3.2-4.9 8-5.8 25.1-1.6 33.9 3.7 7.9 7.5 11 17.5 14.2 5 1.6 10.9 3.7 13.3 4.7 2.3 1.1 5 2 6 2.2 6.2 0.9 17.7 10.9 18.6 16.2 0.3 1.9 0.9 5 1.2 6.8 0.4 2.3 0.1 3.9-0.8 4.8-0.8 0.8-1.8 4.3-2.1 7.8-0.4 3.6-1.5 7.6-2.5 8.9-3.4 4.8-6.2 9.7-6.2 11.2 0 0.8-0.7 2.7-1.4 4.2-0.8 1.6-1.7 4-2 5.5-0.6 3.2-8.8 28-12.1 36.8-1.3 3.3-3.3 9.1-4.5 13-1.2 3.8-3.5 10.8-5.1 15.5-1.7 4.7-3.5 9.8-4 11.5-0.6 1.6-3 8.6-5.4 15.5-2.4 6.9-5.1 15.6-6 19.5-0.9 3.8-2 8.1-2.5 9.5-0.4 1.4-1.7 5.6-2.8 9.5-1.1 3.8-2.8 9.6-3.7 12.8-1.1 3.5-1.7 9.1-1.6 14.2 0 11.4 2.6 18.2 11.8 32l3.2 4.7 10.4 0.5c12.2 0.6 16-0.7 24.3-8.5 6.8-6.3 15.4-20.3 21.8-35.2 0.8-1.9 2.9-6.9 4.6-11 1.8-4.1 4.5-10 6-13 1.6-3 4.5-9.8 6.5-15 2.1-5.2 4.1-10 4.4-10.5 0.4-0.6 1.4-3 2.1-5.5 0.8-2.5 2.3-6.1 3.5-8 1.1-1.9 3.2-6.9 4.6-11 1.5-4.1 5.5-14.5 8.8-23 8.2-20.6 8.2-20.3 16.5-44.6 4-11.6 9-24.6 11.2-28.8 3.2-6.5 3.6-7.9 2.4-8.6-1.3-0.8-1.2-1 0.3-1 1.4 0 1.7-1 1.7-7 0-4 0.4-7 1-7 0.6 0 1-0.7 1-1.5 0-2.5 5.6-12.8 8.1-15.1 6.6-5.7 11.9-7.3 28.4-8.5 14-1 14.8-1.1 28.1-3.6 5.8-1.2 11.4-2.9 13-4 1.6-1.1 3.9-2.4 5.2-2.8 3.8-1.1 9.2-6.5 11.8-11.7 3.7-7.2 8.7-30 8-36.6-0.8-9.2-5.1-11.2-28.6-13.2-5.2-0.5-12.2-1.5-15.5-2.3-3.3-0.9-9.6-1.9-14-2.2-4.4-0.4-12.2-1.3-17.4-2-20.8-3.1-98.1-4.3-118.2-1.8z"/>
		<path id="Layer" fill-rule="evenodd" class="s0" d="m697 119.5c0.8 0.2 3.1 0.7 5 1 6.3 1.2 15.5 6.4 19.1 10.8 6.3 7.7 10.3 16 13.4 28.2 0.8 3.3 1.9 6.9 2.4 8 1 2.3 4.5 14.7 6.1 22 1.3 5.4 4.4 16.1 6.1 21 0.6 1.6 1.4 5.8 1.9 9.3 0.4 3.5 1.5 7.1 2.4 8.1 0.8 0.9 1.7 4.3 2 7.8 0.6 6.5 3.3 19.8 4.6 22.3 0.5 0.8 2.4 9.5 4.4 19.2 2 9.8 4.2 19.4 5 21.5 0.8 2.1 2 7.4 2.6 11.8 0.7 4.4 1.6 10.2 2.1 13 0.5 2.7 1.1 7.7 1.4 11 0.4 3.3 1.1 7.4 1.6 9.2 0.6 1.7 1.4 7.1 1.9 12 0.5 4.8 1.3 12.8 1.9 17.8 4.2 37 3.2 55.4-3.8 69.7-3.2 6.4-5.2 9.1-8.8 11.9-6.4 4.8-17.9 8.1-28.9 8.1-4.9 0-15.6-3.5-18.7-6.2-5.2-4.3-15.2-20.5-17.7-28.5-0.7-2.2-1.6-4.4-2.1-4.9-0.5-0.6-0.9-1.6-0.9-2.2 0-2.3-6.8-13-10.7-16.8-6.6-6.5-10.6-8.1-20.3-8-10.3 0-17.1 2.2-23.8 7.8-5.8 4.9-13 13.6-15.9 19.5-1.2 2.4-2.7 4.8-3.2 5.5-2 2.4-10.3 19.8-15.6 32.6-11.6 27.8-16 34.5-26 39.4-6.3 3.1-9.6 3-19-0.5-8-3-13-7.1-14.5-12.1-3.5-11.8-4-24.5-1.5-41.3 2.1-13.8 3.5-27.2 3.7-35 0.2-6-1.4-12-5.1-19.3-2.8-5.6-3.2-8.4-3.2-20.8 0-11 0.2-11.6 3.6-18.6 4.8-9.8 8.8-15.2 13.3-17.9 2-1.3 5.5-3.8 7.6-5.6 2.2-1.8 4.4-3.3 4.9-3.3 0.8 0 3.5-2.3 10.8-9.1 3.1-3 5.5-9.1 6.5-16.8 0.4-2.8 1.1-5.4 1.5-5.7 0.5-0.3 0.9-1.5 0.9-2.7 0-1.2 0.9-4.4 1.9-7.2 1.1-2.7 2.4-7.5 3.1-10.5 1-4.9 4-14.9 6.1-20.5 0.4-1.1 1.5-4.2 2.5-7 0.9-2.7 2.9-6.1 4.3-7.4 1.6-1.7 2.6-3.8 2.7-6.2 0.1-2 0.9-5.2 1.8-6.9 0.9-1.8 1.6-4.4 1.6-5.7 0-1.2 0.5-2.3 1-2.3 0.6 0 1-2 1-4.4 0-3 0.5-4.6 1.5-5 0.8-0.3 1.5-1.3 1.5-2.3 0-2.6 8.6-23.3 11-26.5 1.1-1.5 2-3.3 2-3.9 0-3.1 12.6-22.3 20.6-31.5 13.7-15.5 24.5-23.9 32.2-24.9 2.6-0.4 5.2-0.8 5.7-1 0.6-0.2 1.7-0.2 2.5 0zm-23.2 142.4c-6 4.7-12.1 23.3-11.7 35.6 0.3 9.4 1.6 10.7 10.4 10.8 8.2 0.1 13.5-2.4 15.5-7.3 3-7.2-2.6-32.1-8.8-39.3-1.9-2.2-2.4-2.1-5.4 0.2z"/>
		<path id="Layer" class="s0" d="m1133.5 154.1c-5.3 2.7-13.2 11.2-15.6 16.9-1.1 2.5-2.4 5.2-2.9 6-2.4 3.8-7 14.1-8.8 19.5-1.9 5.7-5.2 19.3-5.2 21.4 0 1 6.2 7.4 10.1 10.3 1.3 1 3.5 1.8 5 1.8 1.6 0 3.1 0.4 3.4 1 0.3 0.5-1.4 4.3-3.9 8.5-2.6 4.1-4.6 7.8-4.6 8.2-0.2 2-12.1 15.1-15.6 17-2.1 1.2-8 3.1-13.1 4.2-5 1.1-10.7 2.7-12.5 3.7-3.5 1.7-9.8 7.3-9.8 8.6 0 0.4-2.2 4.5-4.9 9-10 17-11.6 20.7-14.1 33.2-1.2 5.9-1 8.6 1.6 19.1 1.4 5.8 1.4 6.3-1 13.5-4 12-6.2 18.2-8.6 24-6.4 15.6-9.2 20-14.3 22.6-1.8 0.9-4.8 2.9-6.7 4.4-1.9 1.5-5.2 3.6-7.2 4.7-5.7 3.1-12.3 8.4-14.5 11.8-5.3 8.1-5.6 21.5-0.6 28.4 4.6 6.4 19.6 15.7 33.3 20.6 2.5 0.9 6.9 2.5 9.9 3.6 3 1 6.2 1.9 7.1 1.9 1 0 2.3 0.6 3 1.4 0.6 0.8 1.7 1.3 2.4 1 0.8-0.3 5.1 0.4 9.7 1.5 10.3 2.4 28.5 6.2 31.9 6.6 1.4 0.1 6.1 1.2 10.5 2.3 4.4 1.2 10.5 2.2 13.5 2.4 3 0.1 6 0.6 6.5 1 2.6 1.8 25.7 1 29-1 0.6-0.4 2.1-0.8 3.5-1 1.4-0.2 3.4-0.9 4.5-1.6 1.1-0.7 3.5-1.8 5.3-2.4 6-2 17.9-11.1 22.8-17.5 6.1-7.6 6.9-9.2 8.8-16.7 1.6-6 1.4-9.8-0.6-15.5-1.1-3.1-5.6-8.5-6.9-8.5-0.5 0-2.4-1.1-4.4-2.4-2.9-2-10.9-4.5-15.2-4.8-0.5 0-1.8-0.4-2.9-0.9-2.8-1-7.2-1.6-20.9-2.9-25.8-2.4-33.2-3.2-35.7-4.3-3.5-1.5-4-5.5-1.4-11 6.6-13.8 8.1-16.7 11.4-21.8 2-3.1 5.3-6.7 7.2-8 4-2.7 7.9-2.9 26.5-1.5 13.9 1 28.6-1 40.6-5.6 9.9-3.7 15.9-7.8 21.9-14.8 3.9-4.5 5.4-7.1 9.3-16 1.9-4.5 3.2-13.4 2.6-18.4-0.7-6-2.7-8-16.2-16-5.3-3.1-10.2-6.6-10.8-7.8-0.7-1.4-1-5-0.6-9.9 0.4-6.4 1.1-8.9 3.8-13.6 8.3-14.6 14.1-17.5 34.8-17.7 17.6-0.1 31.1 0.4 38.7 1.6 12.4 1.8 25.4-3 32.5-12.2 5.6-7.1 6.2-9.5 5.7-22.7-0.4-10.9-0.6-12.3-3.6-18-3.2-6.1-3.4-6.3-13.5-11.2-9-4.4-26.6-10.7-35.2-12.7-1.6-0.4-3.4-1-4-1.4-1.1-0.8-7.3-2.7-20-6-4.4-1.1-12.9-3.4-19-5-6-1.5-12.8-3.5-15-4.3-6.7-2.4-22.9-5.7-36.4-7.4-2-0.2-8.8-0.7-15.1-0.9-10.2-0.4-11.9-0.2-15.5 1.7z"/>
		<path id="Layer" class="s0" d="m1427.5 200.1c-2.7 1.4-9.5 10.8-9.5 13.1 0 1.1-1.8 3.7-3.9 5.8-2.2 2.2-3.7 4-3.4 4 0.3 0-0.2 1.2-1.2 2.6-0.9 1.4-1.4 2.8-1.1 3.2 0.3 0.3 0.6 0.1 0.6-0.4 0-0.6 1.2-1 2.8-0.9 1.5 0 4.7-0.6 7.2-1.3 2.5-0.8 6.4-1.8 8.6-2.4 2.3-0.5 5-1.8 6-2.9 0.9-1 2.2-1.9 2.8-1.9 0.6 0 2.6-1.3 4.4-2.9 2.8-2.6 3.2-3.6 3.2-7.9 0-6.4-2.2-8.4-9.3-8.9-2.8-0.1-6.1 0.2-7.2 0.8z"/>
		<path id="Layer" class="s0" d="m437.5 224.1c-25.5 3.8-34.4 7.9-41 19-1.6 2.8-5.1 8.3-7.6 12.2-2.5 4-8.2 13.9-12.6 22.2-11 20.7-12.5 23.1-22.7 38-0.7 1.2-3.2 3.3-5.5 4.9-3.3 2.3-5.1 2.9-9.5 2.8-9.3-0.1-16.9-5.7-29.5-21.7-13.9-17.7-18-20.8-27.2-20.6-15.5 0.3-24.9 12.6-23.3 30.6 0.3 4.4 1.8 14.1 3.1 21.5 1.4 7.4 2.8 16 3.3 19 1.1 6.9 1.8 10.6 3 15 0.6 1.9 1 4.7 1 6.2 0 1.6 0.4 2.8 0.8 2.8 0.4 0 0.9 1.5 1 3.2 0.1 1.8 0.9 4.6 1.6 6.3 0.8 1.6 1.7 5.3 2 8.2 0.3 2.8 0.8 5.7 1.1 6.5 0.7 1.8 5.7 33.8 5.7 36.3 0 1.1-0.1 2.9-0.2 4-0.1 1.1 0.7 5.7 1.9 10.2 1.1 4.6 2.3 11.6 2.5 15.7 0.5 7.3 1.6 15.7 3.5 26.6 0.6 3 1.5 9.8 2.1 15 0.7 5.2 1.9 12 2.7 15 0.9 3 1.7 8.2 1.8 11.5 0.1 3.3 1 9.1 1.9 13 2.3 9.1 4.3 18.9 5.1 24.5 0.4 2.5 1.1 5 1.5 5.5 0.5 0.6 1.5 3.9 2.4 7.5 2.2 9.5 5.3 18.7 7.6 22.8 1.9 3.3 9.3 9.9 10.2 9.2 0.1-0.2 1.4 0.3 2.8 1 4 2.1 12.7 1.3 18.5-1.8 2.7-1.5 5.3-3.1 5.7-3.7 0.4-0.5 1-0.6 1.4-0.2 1.2 1.2 7.5-13.1 8.6-19.7 1.3-7.4 1.6-30 0.5-45.1-3.5-49.2-3.5-51-0.9-53.8 2-2.3 7.2-4.7 10.1-4.7 5.9 0 17.5 8.7 36.5 27.5 5.1 5 13.6 11.6 19.6 15.1 3.6 2.1 7.4 4.4 8.5 5.1 2.8 1.7 6.7 3.4 8.7 3.8 0.9 0.2 2.6 0.9 3.8 1.5 1.1 0.6 4.2 1.1 6.8 1 2.6 0 5.4 0 6.2 0.1 4.5 0.2 22.5-4.8 30-8.3 12.5-5.9 18.7-13.4 20-24 1.5-11.7-1.7-17.7-15.4-29.1-6.2-5-15.7-13.4-27.2-24-3.5-3.1-6.7-5.7-7.2-5.7-0.5 0-1.3-0.9-1.8-1.9-0.5-1.1-5.2-6.6-10.5-12.3-5.3-5.6-11.5-12.6-13.9-15.3-2.3-2.8-5.7-6.9-7.7-9.2-2-2.3-4.1-5.1-4.7-6.2-0.6-1.1-2.7-4.6-4.6-7.8-6.1-10.1-8.4-21.6-6.1-30.3 0.6-1.9 1.2-4.9 1.5-6.5 0.5-3.5 4.2-20.5 5.5-25.5 1.1-4.3 9-27.4 12.4-36.1 10.4-26.5 14.8-39.8 19.2-56.9 1.9-7.4 3.7-14.5 4.1-15.8 0.5-1.8 0.2-2.2-1.5-2.2-1.2 0-2.1-0.6-2.1-1.5 0-1.7-3.7-1.8-13.5-0.4z"/>
		<path id="Layer" class="s0" d="m1551 285.1c-8.8 0.8-14.8 1.9-29 5-3 0.6-8 1.5-11 1.9-3 0.4-8.4 1.4-12 2.3-3.6 0.9-11 2.3-16.5 3.2-5.5 0.9-12.5 2-15.5 2.6-3.1 0.5-8.2 1.2-11.5 1.5-19.3 1.7-33.2 7-40.8 15.3-4 4.4-10.6 14.1-13.1 19.1-2.7 5.5-5.1 13.2-9.1 30-5.1 21.3-7.8 29.4-12.5 38.6-5.8 11.2-11.3 18.8-19.4 27.1-7.5 7.7-12.2 10.1-27.6 14.3-3.6 1-7.6 2.3-9 2.8-2.6 1.1-13 2.6-25.5 3.7-3.8 0.4-8.1 0.9-9.5 1.3-1.4 0.3-5.4 0.6-9 0.7-18.7 0.7-30.5 4.7-37.6 13-2.4 2.9-4.4 5.5-4.4 5.9 0 0.3-1.1 2.8-2.4 5.6-3.4 7-4.1 15-2.2 24.1 3.3 15.6 6.1 21.6 13.5 28.8 4.7 4.7 6.9 6.1 11.7 7.4 8.9 2.4 27.9 3.4 44.4 2.4 5.2-0.4 14.5-0.9 20.5-1.2 6.1-0.4 15.4-1.3 20.7-2.1 5.4-0.9 10.2-1.3 10.7-1 0.5 0.3 3.3 0.1 6.2-0.4 3-0.6 7-1.2 8.9-1.5 4-0.4 15.8-2.9 24.5-5.1 13.6-3.5 18.2-4.9 21-6.6 1.7-1 4-2.2 5.3-2.8 1.2-0.5 2.2-1.4 2.2-2 0-0.5 0.8-1 1.8-1 0.9 0 3.7-1.9 6.2-4.2 2.5-2.2 6.3-5.7 8.5-7.7 8.3-7.6 16.4-22.9 22.5-42.2 2.3-7.4 4.5-14.3 5-15.5 0.4-1.1 1.8-6.1 3-11 1.3-4.9 2.6-9.4 3-9.9 0.4-0.6 2-4.2 3.5-8 2.9-7.3 9.3-17.2 14.1-21.6 4.3-4 14.7-10.4 23.9-14.8 9-4.3 19.4-7.8 33.5-11.1 14.4-3.5 19.9-5.4 26.5-9.4 3.3-2 6.5-3.6 7.1-3.6 2.1 0 12.8-12.4 15.6-18 6.5-12.8 6-25.2-1.3-40.7-3.1-6.4-6.3-9.4-13.9-13.3-5.3-2.7-16.1-3.4-31-1.9z"/>
		<path id="Layer" fill-rule="evenodd" class="s0" d="m901 490.8c4.1 0.5 16.3 1.7 27 2.6 10.7 1 21.8 2.1 24.5 2.6 2.8 0.5 11.8 1.6 20 2.5 8.3 0.9 17.9 2.2 21.5 3 3.6 0.7 11 2.1 16.5 3 5.5 1 11.7 2.2 13.9 2.7 2.1 0.5 7.1 1.6 11 2.3 9.7 1.8 30.1 7 39.4 10.1 12.7 4.1 16.5 5.2 20.2 5.9 1.9 0.4 9.6 2.6 17 5 17.3 5.5 26.2 8.2 32.5 9.6 2.8 0.7 7 2.1 9.5 3.2 2.5 1.1 6.1 2.3 8 2.7 9.6 2.2 27.1 7.6 39 12 4.7 1.7 9.9 3.6 11.5 4.2 5.4 1.8 15.3 6.8 15.7 7.9 0.2 0.6 2.6 1.9 5.3 2.9 8.5 3.1 16.4 6.6 18.3 8.2 0.9 0.9 2.7 1.9 3.9 2.2 1.2 0.4 3.3 1.6 4.7 2.7 1.5 1.2 5.7 3.7 9.4 5.6 3.7 2 8.1 4.6 9.9 5.9 1.7 1.3 3.4 2.4 3.7 2.4 0.6 0 10.6 6.1 12.3 7.5 0.7 0.5 3.4 2.5 6 4.3 2.6 1.8 6.4 4.3 8.3 5.7 1.9 1.3 5.8 4 8.6 5.8 2.7 1.9 9.8 7 15.6 11.3 5.8 4.4 13.2 9.7 16.4 11.9 3.1 2.2 8.5 6.1 11.8 8.7 3.4 2.6 9 6.8 12.4 9.5 3.5 2.6 7.4 5.7 8.6 6.9 1.3 1.1 4.6 3.7 7.5 5.8 7.5 5.5 10.6 8.2 20.7 17.6 2.7 2.5 8.5 7.6 12.9 11.4 11.2 9.6 43.5 41.5 52.7 52.2 13.1 15 13.9 16 16 19.5 1.1 1.9 3.2 4.8 4.7 6.5 1.4 1.7 3.3 4.1 4.1 5.4 0.8 1.2 3.5 4.8 6 7.9 5 6.2 13 17.6 13 18.5 0 0.3 1.6 2.8 3.5 5.5 1.9 2.6 3.5 5.1 3.5 5.5 0 0.3 1.7 3.2 3.9 6.4 3.5 5.3 10.9 18.8 17.6 32.2 3 5.8 4.3 8.6 5.6 11 0.4 0.8 1.9 4.2 3.4 7.5 1.5 3.3 4.6 10 7 15 3.9 8 8.7 20.5 11.7 30.4 0.5 1.9 1.6 4.4 2.3 5.5 0.7 1.2 2 4.5 2.9 7.5 0.9 2.9 2 5.9 2.6 6.6 0.5 0.7 1.2 2.5 1.4 4.1 0.4 3.7 3.7 15.5 8.6 30.9 7.2 22.6 10.9 35 12.1 40.5 0.6 3 1.5 6.4 2 7.5 1 2.2 1.1 2.5 6.4 29 4.7 23.6 5.2 26.4 6.9 37 0.8 4.9 2.2 13.3 3.1 18.5 3.7 21.8 4.5 27.4 4.1 27.8-0.3 0.2-0.1 1.5 0.4 2.8 0.5 1.3 1.2 6.1 1.5 10.6 0.3 4.6 1 11.7 1.5 15.8 0.6 4.1 2.1 17.2 3.5 29 1.3 11.8 2.9 25.5 3.5 30.5 0.6 4.9 1.5 15 2 22.3 0.5 7.3 1.1 14.1 1.4 15 0.3 0.9 0.8 15.6 1.2 32.7 0.3 17 0.8 31.4 1.1 31.8 0.7 1.1 0.4 56.9-0.3 69.7-0.3 5.8-1.2 11.9-2 13.6-1.8 3.8-7.5 7.1-14.5 8.4-11.7 2.2-96.7 3-124.4 1.1-8.2-0.5-20.8-1.2-28-1.6-25.5-1.1-37-1.7-37.6-2.1-0.8-0.4-42.9-0.4-47.9 0.1-1.9 0.2-10.5 0.6-19 0.9-8.5 0.3-19.2 0.9-23.8 1.2-4.6 0.3-14.5 0.7-22 0.9-7.5 0.2-23.8 0.7-36.2 1.1-19 0.6-54.6 0.8-102 0.5-5.8 0-13.3 0.1-16.8 0.2-3.5 0.2-6.6-0.1-6.8-0.5-0.3-0.5-1.1-0.5-1.7-0.1-0.7 0.5-1.9 0.8-2.7 0.7-0.8 0-6.2-0.4-12-0.8-22.3-1.6-63.1-1.9-135.5-1.1-41 0.5-83.8 0.4-84.6-0.1-0.5-0.3-9.4-0.7-19.7-0.9-10.3-0.2-24.8-0.7-32.2-1-9.4-0.5-15.3-0.3-19.5 0.5-7.9 1.7-13.3 1.5-15.5-0.5-1.4-1.3-4.2-1.6-15.1-1.6-7.4 0-20.1 0-28.4-0.1-48.3-0.3-130.9 0-142.5 0.6-23.8 1.3-160.7 0.6-192-1-4.7-0.2-37.3-0.6-72.4-0.9-42.6-0.3-64.3-0.8-65.2-1.5-0.9-0.8-1.4-0.8-2 0.1-0.5 0.9-7.4 1-28.8 0.3-15.5-0.4-40.5-0.9-55.6-1-92.3-0.8-141.9-1.5-152.3-2.2-12.9-0.9-15.5-2-19.1-8.2-1.7-2.9-1.9-5.5-1.9-32.8 0-26.5 0.4-42.6 1.8-79.6 0.2-6 0.9-13.2 1.4-16 0.5-2.8 1.3-17.5 1.6-32.6 0.4-15.1 0.8-31.1 1-35.5 0.2-4.4-0.2-8.6-0.7-9.3q-1-1.2 0-1.2c0.6 0 1.3-2.6 1.7-5.8 0.3-3.1 1.1-7.7 1.6-10.2 0.5-2.5 1.2-7 1.5-10 0.8-8.8 3.4-29 4.5-35 0.6-3 1.6-9.1 2.4-13.5 0.7-4.4 2.5-12.5 4-18 1.5-5.5 3.5-13.4 4.5-17.5 3.7-15.4 6-24.2 7-26 0.6-1.1 1.2-3.2 1.4-4.7 0.6-4.1 7.5-30.2 8.5-32.1 0.5-1 1.2-3.5 1.6-5.7 0.3-2.2 1.7-7.4 3-11.5 1.3-4.1 3.7-11.8 5.3-17 1.7-5.2 4.2-13.8 5.6-19 1.4-5.2 4.3-14.7 6.6-21 2.3-6.3 4.9-14 5.9-17 3.9-11.8 26.2-58 33.5-69.5 1.8-2.7 4.8-7.9 6.6-11.5 1.9-3.6 5.8-10 8.7-14.2 3-4.3 5.4-8.1 5.5-8.5 0.1-0.4 1.4-2.4 2.9-4.3 3.2-3.9 16.8-22 21.4-28.4 2.7-3.6 13.8-17.7 18.3-23.2 0.9-1.1 4.6-5.5 8.2-9.9 11-13.3 20.2-23.7 28-31.8 4.1-4.3 8-8.3 8.6-9 1.8-2 29.6-28.1 33.7-31.7 4-3.4 6-5.1 17.9-14.1 4-3.1 8.2-6.7 9.3-7.9 1.1-1.2 4-3.6 6.5-5.3 2.5-1.7 6.8-5.3 9.5-7.8 11.8-11.2 41.2-31.9 67-47.4 24.3-14.5 26.2-15.6 34.5-19.7 4.1-2 10-5.1 13-6.9 8.5-4.9 32.5-16.9 33.8-16.9 0.6 0 3.5-1.5 6.4-3.3 2.9-1.8 10.9-5.5 17.8-8.1 6.9-2.7 14.3-5.7 16.5-6.6 2.2-1 5.8-2.4 8-3.1 2.2-0.6 5.4-1.8 7.2-2.6 1.7-0.7 4-1.3 5-1.3 1 0 2.3-0.4 2.9-0.8 0.5-0.5 4.7-1.9 9.4-3.1 4.7-1.3 9.4-2.7 10.5-3.2 3.7-1.6 25.8-7.9 29.9-8.6 2.3-0.3 6.1-1.4 8.6-2.3 2.5-0.9 8.8-2.7 14-3.9 5.2-1.2 14-3.4 19.5-4.8 5.5-1.4 12.9-3.2 16.5-4 3.6-0.7 8.3-1.8 10.5-2.4 2.2-0.5 7.4-1.6 11.5-2.4 4.1-0.7 10.9-2 15-2.8 4.1-0.8 12.9-2.3 19.5-3.2 6.6-1 14.7-2.6 18-3.5 6.3-1.9 14.9-3.5 25-4.6 3.2-0.3 6.8-0.8 8-1 1.1-0.3 5.3-0.9 9.3-1.4 4-0.5 7.8-1.3 8.4-1.6 0.5-0.3 4.4-0.8 8.6-1 4.3-0.2 10.6-0.7 14.2-1.2 7.9-1.1 67.6-0.7 78 0.6zm-38.9 40.2c-1.8 0.4-8.5 0.8-14.7 0.8-6.3 0-12.8 0.3-14.4 0.7-2 0.4-3 0.3-3-0.5 0-0.9-0.5-0.9-1.7 0.1-1.5 1.2-1.6 1.2-0.8-0.1 0.7-1.3 0.6-1.3-0.7-0.2-1.3 1-1.7 1-2.1 0-0.4-1.1-0.7-1-1.5 0-0.5 0.8-1.1 1.3-1.3 1.1-0.2-0.1-2.8 0.3-5.6 1-2.9 0.7-7.7 1.1-10.8 0.8-3.1-0.2-5.5 0-5.5 0.5 0 0.5-1 0.8-2.2 0.7-1.3-0.2-2.9 0.1-3.7 0.5-1 0.7-1.2 0.5-0.6-0.3 0.6-1 0.3-1.1-1.5-0.1-1.2 0.7-3.5 1-5.1 0.8-1.6-0.3-3-0.1-3.1 0.3-0.4 0.9-6.9 2.2-12.3 2.4-2.2 0.1-4.8 0.6-5.8 1-1 0.4-4.1 0.8-6.8 0.9-2.7 0.1-4.9 0.5-4.9 1 0 0.4-1.3 0.6-2.9 0.4-1.8-0.3-2.7 0-2.4 0.5 0.3 0.6-0.7 0.8-2.5 0.5-1.7-0.2-3.3-0.1-3.4 0.4-0.4 1-10.2 2.7-13.5 2.3-1.3-0.1-2.3 0.2-2.3 0.8 0 0.5-1.1 0.7-2.5 0.5-1.3-0.3-2.2-0.1-1.9 0.3 0.3 0.5-0.8 0.9-2.5 0.9-1.6 0-3.2 0.4-3.6 1-0.3 0.5-1.5 0.6-2.8 0.1-1.6-0.6-2.9-0.4-4.2 0.6-1.1 0.7-3.1 1.3-4.5 1.2-1.4-0.1-3.3 0.1-4.2 0.5-0.9 0.4-2.1 0.5-2.7 0.2-0.5-0.4-1.3-0.1-1.6 0.5-0.4 0.5-1.3 0.8-2.1 0.5-0.8-0.3-1.4 0-1.4 0.5 0 0.7-1.1 0.9-2.5 0.7-1.3-0.3-2.2-0.2-2 0.2 0.6 1-3.1 2-7.7 2-2 0-4 0.5-4.3 1.1-0.4 0.6-1.2 0.8-1.9 0.6-0.6-0.2-2-0.1-3.1 0.3-1.1 0.4-2.6 0.3-3.4-0.4-1.1-0.8-1.3-0.8-0.8 0 0.8 1.4-3.8 2.8-5.5 1.8-0.6-0.4-0.8-0.3-0.5 0.4 0.7 1-2.9 1.9-10.7 2.6-2.1 0.2-4.2 0.9-4.6 1.6-0.4 0.7-1.5 1-2.4 0.7-0.9-0.4-1.6-0.2-1.6 0.4 0 0.7-1.3 0.9-3 0.7-1.7-0.3-3.4 0-3.7 0.5-0.4 0.6-0.1 0.7 0.7 0.2 0.9-0.6 1.1-0.4 0.5 0.4-0.4 0.7-1.6 1.1-2.6 0.8-1-0.3-1.9-0.1-2.1 0.3-0.2 0.5-1.6 1-3.3 1.2-1.6 0.1-3.3 0.6-3.6 1.1-0.3 0.4-2.1 0.9-4 1-1.9 0.1-4 0.7-4.6 1.4-0.7 0.6-2.7 1-4.3 0.8-1.7-0.2-2.8 0-2.6 0.4 0.5 0.8-6.5 3.2-10.8 3.7-1.2 0.1-2.2 0.3-2.3 0.4-0.2 0.2-0.6 0.3-1 0.4-0.5 0.1-1.9 0.8-3.2 1.5-1.7 0.9-2.1 1-1.6 0.1 0.6-0.9 0.3-0.9-1.2-0.1-1.1 0.6-2.4 0.7-2.8 0.3-0.5-0.4-0.5-0.2-0.2 0.4 0.4 0.7-1 1.8-3.6 2.7-5 1.8-15.6 4.9-17.7 5.2-0.8 0.1-3 0.9-4.8 1.9-1.9 1-4 1.5-4.7 1.2-0.8-0.3-1.5-0.1-1.7 0.4-0.2 0.5-1 1-1.8 1.2-0.8 0.2-1.7 0.6-2 0.9-1 1.1-10.4 5.1-12.7 5.3-1.3 0.2-2.6 0.6-3.1 1.1-0.4 0.4-0.1 0.5 0.7 0 0.9-0.5 1.2-0.4 0.7 0.3-0.6 1-6.2 3.3-7.9 3.1-0.5 0-1.4 0.7-2.1 1.7-0.7 0.9-1.8 1.4-2.3 1.1-0.6-0.4-1.6 0-2.3 0.9-0.7 0.8-1.9 1.3-2.7 1-0.7-0.3-1.3-0.2-1.3 0.2 0 0.8-5.6 3.4-7.5 3.6-0.5 0.1-1.8 0.9-2.8 1.9-1 1-2.5 1.6-3.2 1.3-0.7-0.2-1.6 0.2-1.9 1-0.3 0.8-0.9 1.3-1.3 1.2-0.4-0.1-2.7 0.8-5.1 2-2.3 1.3-4.7 2-5.2 1.7-0.5-0.3-1.2 0-1.6 0.6-0.4 0.8-0.3 0.9 0.4 0.5 0.7-0.4 1.2-0.5 1.2-0.3 0 0.8-9.3 6-10.7 6-0.7 0-1.5 0.7-1.8 1.5-0.3 0.8-1.2 1.2-1.9 0.9-0.8-0.3-2 0.1-2.7 0.9-0.7 0.8-1.8 1.3-2.6 1-0.9-0.4-1.1-0.1-0.7 0.6 0.5 0.8 0.2 0.9-1 0.5-1-0.4-1.5-0.3-1.1 0.3 0.6 0.9-0.8 1.4-2.7 1.1-0.5 0-0.8 0.4-0.8 1.1 0 0.6-0.3 0.9-0.6 0.5-0.3-0.3-1.6 0.3-2.7 1.4-1.2 1.1-2.7 1.7-3.4 1.5-0.7-0.3-1.2-0.1-1 0.3 0.1 0.5-0.2 0.9-0.7 0.9-0.5 0-1.2 0.4-1.5 0.9-0.3 0.4-1.5 1.5-2.5 2.3-1.8 1.3-1.9 1.3-1.2 0 0.4-0.8-0.1-0.4-1.2 0.9-1.2 1.5-2.4 2.1-3.2 1.6q-1.3-0.8-0.6 0.3c0.4 0.7-0.2 1.6-1.6 2.2-1.3 0.6-4.3 2.4-6.8 4-2.5 1.6-5.6 3.5-7 4.2-1.4 0.7-4.4 2.5-6.6 4-2.3 1.5-4.4 2.4-4.8 2.1-0.3-0.4-0.6-0.1-0.6 0.5 0 0.5-1.7 2.1-3.7 3.3-2.1 1.3-4 2.6-4.3 3-0.3 0.4-1.1 0.9-1.9 1.1-0.7 0.2-2.7 1.5-4.4 3-1.7 1.5-3.4 2.5-3.9 2.2-0.5-0.3-0.7 0-0.6 0.8 0.2 0.7-0.5 1.2-1.4 1.2-1-0.1-1.6 0.2-1.3 0.6 0.5 0.9-6.5 6-8.3 6-0.7 0-1.2 0.4-1.2 0.9 0 1.6-11.2 9.1-12.4 8.4-0.6-0.3-0.8-0.2-0.3 0.2 0.8 1-3.1 5.5-4.8 5.5-0.6 0-3.1 1.9-5.7 4.2-10.4 9.7-13.1 11.8-14.1 11.1-0.5-0.3-0.7-0.1-0.3 0.5 0.7 1.2-3.3 4.4-4.6 3.6-0.5-0.3-0.7 0-0.6 0.6 0.2 0.7-1.3 2-3.2 3.1-1.9 1.1-3.5 2.3-3.4 2.7 0.2 1.3-5 6.1-5.9 5.5-0.6-0.3-0.7-0.1-0.3 0.5 0.8 1.4-2.2 4.4-3.6 3.6-0.6-0.4-0.8-0.3-0.5 0.3 0.6 1-2.7 4.3-4.4 4.3-0.5 0-0.8 0.4-0.5 0.8 0.8 1.3-4.3 5.4-5.7 4.6-0.7-0.4-0.9-0.4-0.5 0 0.8 0.9-2.3 4.7-3.3 4.1-0.4-0.3-0.6 0.3-0.5 1.3 0 1-0.6 1.6-1.6 1.6-1-0.1-1.6 0.1-1.5 0.5 0.1 0.3-0.9 1.8-2.2 3.1-1.3 1.4-2 1.9-1.6 1.1 0.5-1 0.4-1.2-0.4-0.7-0.6 0.4-0.9 1.1-0.6 1.6 0.7 1.1-2 3.2-2.9 2.2-0.4-0.4-0.6-0.2-0.4 0.5 0.4 1.5-8.1 11.3-9.9 11.3-0.8 0-1.2 0.4-0.9 0.8 0.3 0.5-0.5 1.8-1.7 2.9-1.2 1.1-4.2 4.4-6.7 7.3-7.1 8.3-12.7 14-13.9 14-0.6 0-0.7 0.7-0.4 1.7 0.4 1.1 0.3 1.4-0.5 0.9-0.7-0.4-1.2-0.1-1.2 0.8 0 0.8-1 2.2-2.2 3-1.2 0.9-1.9 1.6-1.5 1.6 0.5 0-0.8 2-2.8 4.5-2.1 2.5-4.2 4.2-4.8 3.8-0.5-0.3-0.7-0.2-0.4 0.4 0.7 1.1-2.9 6.5-6 9-1 0.8-1.2 1.1-0.4 0.7 0.7-0.4 0.3 0.7-0.9 2.4-1.3 1.7-2.8 2.8-3.3 2.5-0.6-0.3-0.7-0.1-0.3 0.5 0.4 0.7-0.5 2.4-2.1 3.9-1.5 1.4-2.2 2.3-1.4 1.8 0.8-0.5 0.3 0.7-1.2 2.7-1.5 1.9-2.7 4-2.7 4.7 0 0.6-0.7 1.4-1.5 1.7-0.8 0.4-1.3 0.9-1 1.4 0.6 1-4.4 7.6-5.6 7.2-0.6-0.1-0.8 0.1-0.5 0.6 0.6 1.1-4.8 9.4-5.7 8.7-0.4-0.3-0.5-0.2-0.2 0.1 0.7 1.1-1.5 4.5-2.5 3.9-0.6-0.3-0.7 0-0.4 0.8 0.3 0.8-0.8 2.8-2.4 4.5-1.6 1.7-2.7 3.4-2.4 3.6 0.9 1-2 3.6-3.2 2.9-0.6-0.3-0.8-0.3-0.4 0.1 1 1.2-1.3 6.7-2.5 5.9-0.5-0.3-0.7-0.1-0.3 0.5 0.8 1.3-1.4 6.3-2.5 5.6-0.5-0.3-0.6 0.3-0.2 1.2 0.4 1.2 0.3 1.5-0.5 1-0.8-0.5-1-0.1-0.5 1 0.4 1 0.2 1.5-0.3 1.1-0.6-0.3-1.1 0.2-1.1 1.1-0.3 2.6-7.3 15.2-8.5 15.2-0.6 0-0.9 0.3-0.5 0.6 0.3 0.3-0.2 1.4-1.1 2.5-0.9 1.1-1.7 2.5-1.8 3.2-0.1 2.6-2.6 7.7-3.5 7.1-0.5-0.3-0.6 0.3-0.2 1.2 0.4 1.2 0.3 1.5-0.5 1-0.8-0.5-1-0.1-0.5 1 0.4 1.2 0.3 1.5-0.5 1-0.8-0.5-1-0.1-0.5 1 0.5 1.3 0.3 1.5-0.7 0.9-0.9-0.5-1.1-0.4-0.6 0.4 0.4 0.6 0.2 1.8-0.4 2.6-0.7 0.8-1 1.5-0.6 1.5 0.4 0-0.4 1.9-1.6 4.2-1.2 2.4-2.2 4.7-2.3 5.3-0.1 0.5-0.6 2.3-1.3 3.8-0.7 1.6-1.2 3.3-1.2 3.8 0 0.5-0.5 0.9-1.1 0.9-0.5 0-0.8 0.4-0.5 0.8 0.3 0.5-0.1 2-0.8 3.3-0.7 1.4-1.6 3.8-2 5.3-0.4 1.5-1.1 2.4-1.5 2.1-0.5-0.3-0.7 0.4-0.4 1.5 0.3 1.1 0 2-0.6 2-0.5 0-0.8 0.7-0.5 1.5 0.4 0.8 0.1 1.5-0.6 1.5-0.6 0-0.9 0.3-0.6 0.8 0.6 1-2.8 11-4.2 12.4-0.6 0.6-0.8 1.7-0.5 2.6 0.4 1 0.2 1.3-0.5 0.8-0.7-0.4-0.9 0.2-0.6 1.9 0.2 1.4 0 2.5-0.6 2.5-0.5 0-0.9 0.3-0.8 0.7 0.4 1.9-2.5 9.5-3.8 10-1.3 0.5-1.3 0.7-0.2 1.4 1 0.7 1.1 0.9 0 0.9-0.7 0-1.1 0.4-0.7 0.9 0.3 0.5 0.1 1.2-0.4 1.6-0.6 0.3-0.8 1.2-0.5 1.9 0.3 0.8 0 1.7-0.5 2.1-0.6 0.3-0.9 1.1-0.5 1.6 0.3 0.5 0.1 1.5-0.4 2.2-0.6 0.7-1 1.4-1 1.7 0.2 0.9-2.4 8.4-3.5 10.5-0.6 1.1-1.2 2.3-1.3 2.7-0.1 0.5-0.3 1-0.4 1.3-0.1 0.3-0.4 0.9-0.5 1.5-0.1 0.5-0.3 1.1-0.4 1.2-0.1 0.2-0.4 1.9-0.7 3.8-0.2 1.9-0.7 4.2-1.1 5-0.3 0.8-0.7 1.9-0.8 2.5-0.7 3.8-1.8 7.5-2.4 7.5-0.3 0-0.7 1.9-0.8 4.2-0.1 2.3-0.6 4.4-1.1 4.6-0.5 0.1-0.8 1.2-0.5 2.3 0.3 1 0 2.5-0.6 3.2-0.6 0.8-0.8 1.7-0.4 2 0.3 0.4 0.1 1.3-0.5 2-0.7 0.8-0.9 1.6-0.6 1.9 0.8 0.9-1.8 8.8-2.7 8.2-0.4-0.2-0.6 0.7-0.3 2.1 0.2 1.4 0.1 2.5-0.4 2.5-0.4 0-0.9 1.6-1 3.7-0.2 2-0.6 4.1-1 4.7-0.3 0.6-0.5 1.9-0.3 3 0.1 1-0.1 1.6-0.6 1.3-0.4-0.3-0.9 0.9-1 2.6-0.2 4.4-2.7 13.9-3.5 13.2-0.3-0.3-0.4 0.8-0.2 2.5 0.2 1.8 0 2.9-0.6 2.5-0.5-0.3-0.7 0-0.4 0.8 0.2 0.7-0.1 2.7-0.7 4.3-0.7 1.6-1.1 4.4-1 6.3 0.2 2-0.1 3.1-0.7 2.7-0.5-0.3-1 0.4-1 1.7 0 2.2-0.3 4.3-1.7 14.2-0.4 2.7-0.7 5.8-0.7 6.7 0 1-0.3 1.8-0.8 1.8-0.5 0-0.7 0.7-0.4 1.5 0.3 0.8 0.2 2-0.2 2.7-0.5 0.7-1 3.3-1.2 5.8-0.2 2.4-0.8 4.8-1.5 5.2-0.8 0.5-0.8 0.8-0.1 0.8 0.7 0 0.9 1.5 0.4 4.6-0.4 2.5-0.8 8.2-0.9 12.7-0.1 7.2-0.7 12.7-2.6 27.7-0.3 1.9-0.7 9.1-0.9 16-0.3 6.9-0.7 17.9-1 24.5-0.4 6.6-0.8 16.7-1.1 22.5-0.4 8.8-1 14.5-1.4 14.5-0.1 0-0.6 7.6-1.9 32.2-0.4 7.7-0.3 12.9 0.2 12.6 0.5-0.4 0.6 0 0.1 0.7-0.9 1.4-0.8 9.2 0.1 18 0.6 5.6 3.1 11.3 4.6 10.4 0.4-0.3 1.3-0.2 2 0.2 1.6 1 6.1 1 7.6 0 0.7-0.4 2-0.2 2.8 0.5 1.2 1 1.7 1 2.3 0.1 0.5-0.8 2.3-1 5.2-0.7 2.4 0.3 5 0.5 5.7 0.5 0.6 0 3.1-0.1 5.5-0.1 2.3 0 6.7 0 9.7 0 10.6-0.1 22 1.3 21.3 2.5-0.5 0.8-0.3 0.8 0.8 0 1.7-1.4 7.1-1.5 6.3-0.2-0.4 0.6 0 0.7 1.2 0.1 1.1-0.5 3.5-0.8 5.4-0.7 3.6 0.3 5.2 0.4 13 0.5 4.5 0.1 9.3 0.5 9.8 0.9 0.7 0.7 2.8 0.4 3.3-0.3 0.4-0.5 1.2-0.6 1.9-0.2 0.6 0.4 5.3 0.7 10.3 0.7 6-0.1 9.4 0.3 9.9 1.1 0.6 0.9 0.8 0.9 0.8-0.1 0-0.8 1.7-1.2 4.9-1.2 3 0 5.1 0.5 5.4 1.2 0.4 0.9 0.6 0.9 0.6 0.2 0.1-0.8 1.2-0.9 3.4-0.5 1.8 0.5 4.1 0.7 5.2 0.5 1.1-0.2 2.3 0.2 2.7 0.9 0.6 0.9 1 0.9 1.7-0.2 0.7-1.1 5.2-1.3 26.7-0.6 14.3 0.4 26.2 0.9 26.6 1.1 0.4 0.3 35.3 0.7 77.5 0.9 51.2 0.2 77.7 0.7 79.6 1.4 1.7 0.7 2.7 0.7 2.7 0.1 0-1.4 4.7-1.3 5.6 0.1 0.5 0.8 0.9 0.8 1.4-0.1 0.5-0.7 1.3-0.9 2.1-0.5 0.7 0.5 3.7 0.7 6.6 0.6 2.9-0.1 5.8 0.1 6.5 0.5 1.8 1.2 4.8 1.2 4.8 0.1 0-0.5 0.7-0.4 1.5 0.3 1.6 1.3 8.4 1.8 10.1 0.7 1.1-0.6 8.4-0.4 9.9 0.4 1 0.4 2.4 0.4 11-0.4 2.2-0.2 4.4-0.1 4.9 0.1 0.5 0.3 3.6 0.4 6.8 0.3 3.2-0.1 6.3 0.1 6.9 0.5 1.3 0.8 10.2 0.9 11.5 0.2 0.5-0.3 3.5-0.2 6.7 0.1 3.2 0.4 6.6 0.6 7.5 0.4 6.5-1.2 10.4-1.3 13.5-0.5 2 0.6 3.9 0.7 4.1 0.3 0.8-1.2 8.2-1.2 11.3 0 3.2 1.2 11.5 1.5 13.2 0.5 0.6-0.4 2.4-0.6 3.9-0.5 1.5 0.2 3.3 0 4-0.4 0.6-0.5 1.6-0.6 2.1-0.2 0.5 0.3 1.2 0.1 1.6-0.5 0.3-0.5 1.3-1 2.1-1 0.8 0 1.3 0.4 1 0.9-0.4 0.5 0.3 0.7 1.4 0.4 1.1-0.3 2-0.1 2 0.5 0 1 1.7 1.1 3.5 0.1 0.6-0.3 5.7-0.7 11.4-0.8 8.4-0.2 10.2 0 9.5 1.1-0.6 1.1-0.5 1.1 0.8 0 0.9-0.7 3.1-1 5.2-0.8 2 0.3 3.6 0.1 3.6-0.5 0-0.6 0.8-0.5 2.1 0.2 1.5 0.8 2.4 0.8 3.2 0 1.2-1.2 12.7-1.5 12.7-0.3 0 0.9 13.5 0.7 15-0.3 0.5-0.3 1.5-0.3 2.1 0.1 1.6 0.9 12.8 1.1 12.2 0.1-0.2-0.4 0.3-0.7 1.2-0.7 0.9 0 1.4 0.3 1.2 0.7-0.6 0.9 17.1 0.7 19.5-0.2 2.2-0.9 17.1-0.1 18.8 1q1.4 0.8 0.6-0.3c-0.5-0.8 0.1-1.2 1.4-1.2 1.3 0 1.9 0.4 1.4 1.2q-0.7 1.1 0.6 0.3c1.1-0.7 8.2-0.7 20.8-0.1 2.3 0.1 4.2-0.2 4.2-0.7 0-0.4 0.4-0.6 0.9-0.2 0.5 0.3 7.4 0.6 15.3 0.6 7.9 0.1 14.6 0.3 14.9 0.5 0.7 0.4 61.9 1.9 74.6 1.8 5.1 0 9 0.2 8.8 0.5-0.1 0.3 6.4 0.5 14.7 0.3 8.2-0.2 15.7-0.1 16.6 0.3 2 0.8 25.5 1 26.8 0.3 1.5-0.9 13.4-1 13.4-0.1 0 0.9 10.4 0.8 24.8-0.1 5-0.4 9.2-0.3 9.2 0.2 0 1 3.6 0.9 4.7-0.1 0.4-0.4 10.2-0.7 21.8-0.7 11.5 0 21.2 0 21.5 0 3.9-0.8 7.5-0.8 8.6 0.1 0.9 0.7 1.8 0.7 3.2-0.2 1.1-0.7 2.7-0.9 3.8-0.4 1.1 0.4 3.7 0.8 5.9 0.9 2.2 0.1 4.6 0.5 5.3 1 0.6 0.4 1.2 0.2 1.2-0.3 0-0.6 0.9-1.1 2-1.1 1.1 0 2 0.3 2 0.7 0 0.5 2.7 0.8 6 0.8 3.3 0 6-0.4 6-0.9 0-0.5 0.6-0.3 1.4 0.3 1 0.8 1.6 0.9 2.1 0.1 0.7-1.2 17.2-1.4 17.7-0.1 0.2 0.4 3.4 0.4 7.1-0.2 4.2-0.7 7.1-0.7 7.5-0.1 0.4 0.5 12.1 0.9 27 1 17.8 0.1 26.6 0.4 27.4 1.2 0.8 0.8 1.7 0.8 3.1 0 2.4-1.2 61-1.3 61.4-0.1 0.3 0.7 9.8 0.9 9.8 0.2 0-1.3 36.5-1.1 38.1 0.2 0.8 0.7 1.3 0.6 1.6-0.1 0.2-0.6 3.9-1.3 8.3-1.5 4.4-0.3 8-0.5 8-0.6 0-0.7 8.7-0.5 9.1 0.2 0.3 0.5 1 0.6 1.6 0.3 0.6-0.4 3.6-0.9 6.7-1.1 11.9-0.7 19.8-1.3 24.3-1.7 2.6-0.2 5-0.1 5.3 0.4 0.3 0.5 1.1 0.7 1.8 0.4 0.7-0.2 5.7-0.6 11.2-0.8 5.5-0.1 10.7-0.5 11.5-0.9 2.2-0.8 5.3-0.6 6.7 0.5 0.7 0.5 1.7 0.7 2.3 0.3 1.9-1.2 37.1-0.7 38.5 0.5 0.7 0.6 1.6 0.7 1.8 0.3 0.8-1.3 7.4-1.5 8.2-0.4 0.3 0.6 1.2 0.8 2 0.5 0.8-0.3 1.9-0.3 2.5 0.1 0.6 0.4 9.8 0.6 20.5 0.5 10.7 0 19.5 0.3 19.5 0.7 0 0.4 6.6 0.8 14.8 0.8 20.9 0 36.2 0.6 36.7 1.4 0.2 0.4 2.1 0.6 4.2 0.3 2.1-0.2 4.4-0.3 5.1-0.3 4.9 0.2 6.3 0.4 6.7 1.1 0.3 0.4 2 0.5 3.7 0.1 1.8-0.4 9.3-0.7 16.5-0.6 7.3 0 13.4-0.3 13.5-0.7 0.2-0.4 2.4-0.8 5-1 2.5-0.2 4.4-0.6 4.2-1-0.2-0.4 0.5-1 1.7-1.3 1.1-0.4 1.8-0.9 1.5-1.2-0.3-0.3-0.1-1.4 0.5-2.5 0.6-1.1 1.3-3.6 1.5-5.6 0.2-2.1 0.7-4.8 1-6.2 0.6-2.2 0.8-18 0.4-20.5-0.2-0.6-0.1-1.5 0-2 0.7-3.2 0.6-5.6-0.2-6.1-0.5-0.3-0.4-1.1 0.2-1.9 0.8-1 0.8-1.5 0-2-0.7-0.4-1-3.8-0.9-9 0.1-4.5-0.1-8.7-0.4-9.2-0.3-0.5-0.2-1.5 0.3-2.3 0.5-0.8 0.5-2.1 0-2.9-0.4-0.9-0.9-5-1-9.1-0.5-18.4-1.1-31.7-1.7-34.5-0.3-1.7-0.7-7.7-0.8-13.5-0.2-5.8-0.7-11.4-1.2-12.5-0.4-1.1-0.8-7-0.8-13.2 0-6.1-0.4-10.9-0.8-10.6-0.4 0.2-0.6-1.2-0.4-3.1 0.3-2 0.1-3.8-0.3-4.1-0.4-0.2-0.7-1.7-0.8-3.2-0.1-1.5-0.4-3.9-0.7-5.3-0.7-2.7-1.6-9.1-1.9-12.7 0-1.1-0.4-1.9-0.8-1.7-0.4 0.2-0.6-1.8-0.5-4.6 0.1-2.7-0.2-5.1-0.7-5.3-0.4-0.1-0.9-3.1-1-6.5 0-3.4-0.4-6.2-0.7-6.2-0.4 0-0.6-1.8-0.5-4 0-2.2-0.2-4-0.6-4-0.4 0-0.6-2.5-0.5-5.5 0.1-3-0.1-5.5-0.4-5.5-0.3 0-0.9-2.6-1.3-5.8-0.4-3.1-0.9-7.1-1.1-8.7-0.3-1.7-0.7-5.3-0.9-8-0.2-2.8-0.8-6.2-1.4-7.6-0.6-1.4-0.9-4.5-0.7-6.8 0.2-2.3-0.1-3.9-0.6-3.6-0.5 0.4-0.7-0.9-0.6-2.7 0.2-1.8 0-3.8-0.4-4.3-0.5-0.6-1-2.7-1.2-4.6-0.2-1.9-0.6-3.9-0.9-4.4-0.5-0.9-2-6.4-2.4-9-0.1-0.6-0.3-1.3-0.4-1.8-0.1-0.4-0.3-1.5-0.4-2.5-0.1-0.9-0.8-2.8-1.5-4.1-0.9-1.7-1-2.1-0.1-1.6 0.9 0.6 0.9 0.2 0.1-1.4-0.7-1.2-0.9-2.5-0.6-3 0.3-0.5 0.1-1.1-0.5-1.3-0.5-0.1-1.2-1.9-1.4-3.8-0.3-1.9-0.5-3.5-0.6-3.5-0.2 0-1.1-3.7-1.5-6.7-0.3-1.5-1.2-4.4-2-6.5-0.9-2-1.3-4.3-1-5 0.2-0.8 0.1-1.2-0.4-0.9-1 0.6-2.8-5.1-2.6-8.1 0.1-1.2-0.2-2-0.7-1.7-0.7 0.4-1.3-2.6-0.9-4.9 0-0.4-0.4-0.7-1-0.7-0.7 0-0.9-1-0.7-2.5 0.3-1.3 0.2-2.2-0.2-2-0.4 0.3-1.1-1.7-1.6-4.3-0.4-2.6-0.8-4.9-0.9-5.2 0-0.3-0.6-1.5-1.3-2.7-0.6-1.2-1.3-3.7-1.4-5.6-0.2-1.9-0.6-3.3-0.9-3.1-0.9 0.5-2-2.6-1.3-3.7 0.3-0.5 0-0.8-0.8-0.7-0.8 0.2-1.4-0.8-1.4-2.7-0.1-1.7-0.3-3.3-0.4-3.8-0.1-0.4-0.3-1-0.4-1.5-0.1-0.4-0.7-1.7-1.4-3-0.7-1.2-1.1-2.2-0.8-2.2 0.3 0-0.1-1.2-0.9-2.7-0.8-1.5-1.2-3-0.9-3.5 0.3-0.4 0-0.8-0.6-0.8-0.6 0-0.8-0.5-0.5-1 0.3-0.6 0.2-1-0.2-1-1.3 0-5.5-13.8-4.7-15.2 0.4-0.6 0.3-0.8-0.3-0.5-0.9 0.5-3.6-4.1-3.8-6.3 0-0.3-0.6-1.5-1.3-2.8-0.7-1.2-1-2.6-0.7-3.1 0.3-0.5 0-1.1-0.5-1.3-0.6-0.2-1.2-2-1.3-4-0.1-2-0.6-3.6-1.2-3.5-0.5 0.1-0.9-0.4-0.7-1.1 0.1-0.6-0.2-1.2-0.8-1.2-0.6 0-0.9-0.3-0.8-0.8 0.1-0.4-0.4-1.7-1.1-3-0.7-1.3-1-3-0.7-3.8 0.4-1 0.2-1.2-0.6-0.8-0.8 0.5-0.9 0.2-0.5-0.9 0.4-1 0.2-1.7-0.4-1.7-0.6 0-0.8-0.7-0.5-1.6 0.3-0.8 0.2-1.3-0.3-1-1.1 0.7-2.3-2.2-1.4-3.6 0.3-0.6 0.1-0.8-0.4-0.5-0.9 0.6-2-1.7-2.7-5.3-0.1-0.3-0.5-1.1-0.9-1.8-0.5-0.6-0.5-1.7-0.2-2.2 0.3-0.6-0.1-1.3-1-1.6-0.9-0.4-1.4-1.3-1.1-2.1 0.3-0.8 0.2-1.2-0.3-0.9-1.1 0.7-2.3-2.2-1.5-3.5 0.3-0.5-0.1-1.2-1-1.5-0.8-0.3-1.3-1.4-1.1-2.5 0.2-1-0.1-1.8-0.8-1.6-0.7 0.1-1.2-0.5-1.2-1.3 0.1-0.8-1-3-2.4-4.9-1.4-1.9-1.8-3.1-1-2.6 0.8 0.4 0.3-0.4-1-1.8-1.4-1.5-2.1-3.2-1.7-4.2 0.3-0.9 0.2-1.3-0.4-1-0.5 0.3-1.5-0.7-2.2-2.2-0.7-1.5-1.5-3-1.8-3.3-1.2-1.2-5.1-9-4.4-9 0.4 0-0.5-1.1-2.1-2.4-1.7-1.5-2.5-2.8-2-3.6 0.5-0.8 0.4-1.1-0.2-0.7-0.9 0.6-2.7-2-2.3-3.2 0.1-0.2-0.2-0.7-0.7-1-1.6-1.1-8.6-11.6-8.6-12.8 0-0.7-0.3-1.1-0.6-0.9-0.3 0.2-1.5-0.8-2.6-2.3-1.2-1.6-1.4-2.2-0.4-1.6q1.2 0.7-0.3-0.6c-0.9-0.9-1.4-1.9-1.1-2.3 0.4-0.3 0.1-0.6-0.5-0.6-0.7 0-1.2-0.5-1.2-1 0-0.6-0.9-1.9-2-3-1.2-1.2-1.8-2.6-1.4-3.3 0.4-0.7 0.4-0.9-0.1-0.5-0.5 0.5-2-0.9-3.4-3-2.9-4.4-3.8-5.5-6.9-8.7-1.3-1.4-1.9-2.5-1.5-2.5 0.4 0-0.3-0.7-1.5-1.6-1.2-0.8-1.9-2-1.6-2.6 0.4-0.7 0.2-0.8-0.4-0.4-1.4 0.8-3.5-3-2.6-4.7 0.4-0.6 0.3-0.9-0.1-0.4-1.1 1-9.6-8.3-8.8-9.6 0.3-0.6 0.1-0.7-0.5-0.3-0.7 0.4-1.2 0-1.2-1 0-1-0.3-1.4-0.7-1.1-0.9 1-4.3-4.4-3.6-5.6 0.3-0.6 0.2-0.7-0.4-0.4-1.3 0.8-5.3-2-5.3-3.8 0-0.8-0.9-1.9-2-2.5-1.1-0.6-1.8-1.5-1.5-2.1 0.4-0.5 0-0.9-0.8-0.9-1.4 0-3.2-2.7-2.9-4.2 0.1-0.4-0.5-0.5-1.3-0.2-1 0.4-1.5 0-1.5-1.1 0-0.9-0.4-1.3-1-1-0.5 0.3-1 0.2-1-0.3 0-0.5-3.1-4.2-7-8.1-3.8-4-7-6.9-7-6.5 0 0.4-2.1-1.5-4.7-4.2-2.5-2.7-4.6-5.2-4.5-5.7 0.1-0.4-0.4-0.7-1.2-0.7-0.8 0-1.6-0.7-2-1.5-0.3-0.8-1.2-1.5-1.9-1.5-0.8 0-3.2-1.9-5.4-4.3-2.1-2.3-4.3-4.4-4.8-4.7-0.6-0.3-0.9-0.9-0.7-1.3 0.1-0.5-0.3-0.5-0.9-0.1-0.6 0.4-2.7-1.1-4.9-3.5-2.1-2.2-4.2-4.1-4.7-4.1-1.3 0-4.9-4-3.7-4 0.5-0.1-0.7-0.9-2.6-1.9-1.9-0.9-3.4-2.3-3.2-3 0.1-0.7-0.2-1-0.7-0.6-0.6 0.3-2.9-1.3-5.2-3.6-2.3-2.3-3.9-3.6-3.5-2.8 0.4 0.8-0.1 0.4-1.2-0.8-1.1-1.2-2.3-1.9-2.7-1.5-0.5 0.4-0.5-0.2-0.1-1.3 0.4-1.1 0.4-1.6 0-1.2-0.4 0.4-1.6-0.1-2.7-1-1.5-1.3-1.8-1.4-1.2-0.3 0.4 0.8-0.4 0.4-1.8-0.9-1.5-1.3-2.4-2.8-2.1-3.2 0.3-0.5-0.1-0.6-0.9-0.4-1.3 0.6-4.5-2.2-4.6-3.9 0-0.6-0.8-1.1-1.8-1.2-1-0.2-1.9-0.8-2.1-1.4-0.2-0.6-1.9-1.7-3.8-2.5-1.9-0.8-3.4-1.9-3.4-2.5 0-0.6-0.4-0.9-0.9-0.6-0.5 0.3-2.3-0.7-4-2.3-1.7-1.6-3.1-2.6-3.1-2.3 0 0.3-0.7-0.3-1.5-1.4-0.8-1-1.5-1.5-1.5-1.1 0 0.8-1.3-0.1-5-3.5-1.1-1-3.7-2.9-6-4.3-2.2-1.4-4-3-4-3.5 0-0.6-0.3-0.9-0.7-0.8-1.4 0.4-5.4-2.3-4.8-3.2 0.3-0.4-0.6-0.7-2-0.5-1.4 0.1-2.8-0.2-3.2-0.8-0.4-0.6-0.1-0.7 0.8-0.3 0.8 0.4 0.6 0.1-0.3-0.7-1-0.8-1.4-1.8-1-2.2 0.4-0.5 0.2-0.5-0.5-0.2-1.4 0.9-4.5-0.2-3.8-1.3 0.3-0.4-0.5-1-1.6-1.3-1.3-0.4-1.8-1-1.3-1.8 0.5-0.8 0.3-1-0.6-0.4-0.8 0.5-2-0.1-3.2-1.6-1.1-1.3-1.6-1.7-1.2-0.9 0.7 1.3 0.6 1.3-1.2 0-1-0.8-2.3-2.1-2.7-2.8-0.5-0.7-1.3-0.9-1.9-0.6-0.6 0.4-1.6 0.1-2.2-0.7-0.6-0.8-2.7-2.2-4.6-3.3-5.8-3.1-14-8.7-14-9.4 0-0.4-1-0.8-2.2-0.9-1.2-0.1-2.6-0.9-3-1.8-0.5-0.8-1.3-1.3-1.8-1-1.1 0.7-11-5.3-11-6.6 0-0.6-0.5-0.7-1.2-0.3-0.6 0.4-1.7-0.1-2.4-1-0.7-1-1.4-1.6-1.6-1.5-0.7 0.4-5.3-1.4-6-2.4-0.3-0.6-1.7-1.2-2.9-1.4-1.3-0.2-2.7-0.9-3.1-1.6-0.4-0.6-1.3-1.2-2-1.2-1.8-0.1-6.8-2.3-6.8-3 0-0.4 0.5-0.3 1.2 0.1 0.7 0.4 0.8 0.3 0.4-0.5-0.4-0.6-1.1-0.9-1.6-0.6-0.5 0.3-1.1 0.1-1.5-0.4-0.3-0.6-1.2-0.8-2-0.4-0.8 0.3-1.5 0-1.5-0.7 0-0.6-0.4-0.9-0.9-0.5-0.6 0.3-1.5-0.1-2.2-0.8-0.7-0.7-2.5-1.1-4-0.9-1.4 0.2-3-0.2-3.4-0.9-0.6-0.8-0.4-1 0.6-0.4 0.8 0.5 1.1 0.5 0.7 0-0.4-0.4-2-0.9-3.5-1-2.8-0.2-12.6-4.4-13.1-5.6-0.1-0.3-1.4-0.4-2.7-0.1-1.4 0.2-2.5 0-2.5-0.5 0-0.5-1-0.9-2.2-1-1.1-0.1-2.4-0.6-2.7-1-0.3-0.4-1-0.8-1.6-0.9-2.8-0.1-8.4-1.7-8.1-2.3 0.2-0.3-1-0.7-2.7-0.8-1.7-0.1-3.3-0.6-3.6-1-0.3-0.5-1.9-0.9-3.4-1.1-1.6-0.2-4-0.8-5.5-1.4-1.5-0.6-3.4-1.2-4.2-1.4-5-0.9-12.4-3.5-13.1-4.6-0.5-0.7-0.9-0.9-0.9-0.4 0 0.5-0.7 0.3-1.5-0.4-0.8-0.6-1.9-0.9-2.4-0.5-0.6 0.3-2.1 0-3.3-0.7-1.3-0.7-3.6-1.3-5.2-1.4-1.6-0.1-3.2-0.7-3.6-1.4-0.4-0.6-1.1-1.1-1.6-1.1-2.2 0.2-7.3-1.2-6.9-1.9 0.2-0.4-0.7-0.6-2-0.4-1.4 0.1-2.5-0.1-2.5-0.6 0-0.4-0.9-0.6-2-0.3-1.1 0.3-3-0.1-4.2-0.9-1.3-0.8-3.8-1.3-5.6-1.1-2.3 0.2-3.1-0.1-2.6-0.9 0.4-0.6 0.3-0.8-0.2-0.5-1.4 0.8-12.8-1.8-15.4-3.6-1.2-0.8-2.9-1.3-3.8-1-0.9 0.4-1.3 0.2-0.9-0.4 0.3-0.5-0.2-0.9-1.1-0.9-4.8 0-7.3-0.5-6.8-1.3 0.3-0.4-0.6-0.6-1.9-0.3-1.4 0.2-2.5 0-2.5-0.6 0-0.5-0.6-1-1.2-0.9-3.6 0.1-5.8-0.5-7.2-1.9-0.9-0.8-1.6-1.1-1.6-0.5 0 0.6-0.5 1.1-1.1 1.1-0.5 0-0.8-0.4-0.5-0.9 0.4-0.5-0.2-0.7-1.3-0.4-1 0.3-2.1 0.1-2.4-0.4-0.3-0.5-2.4-0.8-4.6-0.6-2.2 0.1-4.2-0.1-4.5-0.6-0.4-0.5-1.5-0.7-2.6-0.4-1.2 0.3-2.2-0.1-2.6-1-0.3-0.9-1.2-1.3-2-1-0.8 0.3-1.4 0.1-1.4-0.3 0-0.5-1.5-1-3.2-1-3-0.2-5.9-0.6-11.3-1.8-1.1-0.3-2.1-0.5-2.2-0.6-0.2-0.2-0.7-0.4-1.3-0.5-0.5-0.1-1.3-0.4-1.7-0.5-0.5-0.1-1.8-0.1-3.1 0-1.3 0.1-2.9-0.3-3.6-1-0.8-0.6-1.8-1-2.2-0.9-0.5 0.1-1.1 0-1.4-0.1-0.3-0.1-3-0.4-6-0.6-3-0.3-6.2-0.7-7-1.1-0.8-0.3-3-0.5-4.7-0.4-1.8 0.2-3.3-0.2-3.3-0.8 0-0.7-0.8-0.7-2.4-0.1-1.3 0.5-2.7 0.6-3 0.2-0.4-0.3-3.3-0.8-6.4-1-3.1-0.2-5.9-0.7-6.2-1-0.3-0.4-4-0.7-8.3-0.8-4.3 0-8.1-0.4-8.5-1-1.1-1.5-3.3-1.6-5-0.2-1.3 1.1-1.4 1.1-0.7-0.2 0.8-1.3 0.6-1.3-0.8-0.2-0.9 0.8-2.2 1-2.9 0.6-0.7-0.4-3.5-0.9-6.3-1.1-2.7-0.2-6.8-0.5-9-0.6-2.2-0.2-4.5-0.5-5-0.9-0.6-0.3-2.7-0.5-4.7-0.4-2.1 0.1-3.8-0.1-3.8-0.4 0-0.3-1.5-0.6-3.2-0.7-1.8-0.1-4.2-0.2-5.3-0.4-1.1-0.1-3.5 0.1-5.4 0.5-1.9 0.5-3.1 0.4-2.8-0.1 0.3-0.5-0.3-0.9-1.3-0.9-1 0-1.6 0.4-1.4 0.8 0.3 0.4-0.2 0.8-1 0.8-0.8 0-1.8-0.5-2.1-1-0.7-1.1-0.7-1.1-5.4 0z"/>
		<path id="Layer" fill-rule="evenodd" class="s0" d="m907.2 671.6c11.2 5.6 16.5 12 21.1 25.5 3.3 9.6 4 19.8 2.2 32.9-1.8 12.4-3.5 18.8-8.1 29.1-1.8 4.2-4.5 10.8-5.9 14.5-2.5 6.6-10.4 23.3-11.5 24.4-0.3 0.3-1.6 2.7-2.8 5.5-1.3 2.7-6 11.3-10.4 19-4.4 7.7-8.4 14.7-8.8 15.5-3.6 6.4-13.5 22.1-18.8 29.7-3.5 5.1-6 9.3-5.6 9.3 0.4 0-0.4 1.2-1.8 2.7-1.3 1.6-4 5-5.9 7.8-1.9 2.7-4.2 5.6-5.1 6.3-1 0.7-1.8 1.8-1.8 2.4 0 1-1.5 3.3-11.3 17.5-3.1 4.5-5.7 8.9-5.7 9.7 0 0.9-0.4 1.6-0.9 1.6-0.5 0-1.3 1-1.6 2.1-0.4 1.2-2.4 4-4.5 6.3-3.7 4-20.7 28.9-24.3 35.4-2.7 5-1.6 6.9 4.3 7.7 2.8 0.4 7.6 0.5 10.7 0.4 3.2-0.2 6.5 0.1 7.3 0.6 0.8 0.5 6 1 11.5 1.1 5.5 0.2 12.2 0.8 14.8 1.4 2.7 0.6 5.2 0.8 5.6 0.5 0.5-0.2 6.3-0.7 12.9-0.9 11.7-0.4 12.3-0.6 16.9-3.7 2.6-1.8 6-4.5 7.5-6 3-2.9 6.2-3.7 19-4.8 9.6-0.8 12.8-2.2 26.3-11 9.2-6 10.2-7.7 14-22.2 2.2-8.8 5-17.1 7.5-22.4 0.5-1.1 1.9-5 3.1-8.8 1.1-3.7 2.4-6.7 2.8-6.7 1.1 0 8.1-11.2 8.1-12.8 0-2.4-3.2-12.6-4.7-14.8-0.7-1.2-3-3-5.1-4-13.3-6.8-18.1-16.3-10.9-21.8 1.9-1.5 4.2-2.6 5.1-2.6 0.9 0 3.5-0.9 5.7-2.1 4-2 6.9-6.5 6.9-10.6 0-2.6 4.8-12.4 6.8-14 3.1-2.5 10.6-5.5 13.7-5.5 8.8 0.2 15.5 4.7 15.5 10.4 0 2.7-4.2 7.2-7.7 8.3-2.8 0.8-4.1 5.1-2.2 7 1 1 6.2 1.8 16.3 2.5 12.1 0.8 15.5 1.4 18.3 3.1 8.2 5.1 6.9 13-3.2 19.5-3 1.9-5.5 3.6-5.5 3.8 0 2.7 6.7 8.3 14.7 12.4 2.1 1.1 4.7 3 5.8 4.2 1.1 1.2 3.6 3 5.6 4 2 1 6 4.5 9.1 7.8 5.8 6.3 5.5 5.5 8.8 24.2 2.1 12 1.3 55.4-1.1 61.7-1.2 3.3-0.3 4.9 3.9 6.1 3.8 1.1 113.2 0.9 129.2-0.3 4.1-0.3 13.1-0.9 20-1.4 6.9-0.5 13.9-1.4 15.5-2 2.6-0.8 31-2.3 41.5-2.2 1.9 0 5.3-0.6 7.5-1.5 2.3-0.9 8.6-1.8 15-2.1 6-0.3 13.2-1.1 16-1.8 2.7-0.7 8.3-1.3 12.4-1.4 4.1-0.1 7.9-0.5 8.5-0.8 0.5-0.4 4.6-1 9-1.4 4.5-0.4 11-1.2 14.6-1.8 3.6-0.6 11.5-1.7 17.5-2.6 6.1-0.8 14.4-2.2 18.5-3 4.1-0.7 12.9-1.9 19.5-2.5 13.6-1.3 16.9-0.6 18.6 3.7 1.3 3.3 0.6 14-1 15.6-0.6 0.6-1.1 1.7-1.1 2.5 0 1.4-9.8 17.7-12.7 21.2-0.7 0.8-3.6 5.2-6.5 9.7-5.6 8.7-18.6 28.1-20 29.8-2.5 3.1-7.8 10.7-10.8 15.5-2.9 4.7-4.5 6.9-8.8 12.5-0.4 0.5-2.5 3.7-4.5 7.1-2.1 3.3-6.2 8.4-9.2 11.4-3 3-5.5 6-5.5 6.6 0 1.3 5.3 4.4 7.4 4.4 0.6 0 2.7 0.8 4.6 1.9 2.7 1.4 5.9 1.9 13.8 2 5.7 0.1 11.4 0.6 12.7 1.1 1.3 0.5 5.1 1.4 8.6 2 10 1.8 16.9 8.5 16.9 16.2 0 4.1-2 7.1-8.5 13.1-5.8 5.3-5.5 6.2 2.5 7.2 20.7 2.4 32.2 11.8 26.8 21.8-2 3.9-9.5 8.1-17.4 9.8-13.2 2.8-20.4 4.1-25.4 4.5-9.5 0.7-15.2 1.4-16 1.9-0.4 0.3-2.4 0.7-4.3 0.9-9.2 1.2-11.6 2.5-16.7 9-3.8 4.8-6.3 6.9-10.2 8.7-2.9 1.2-5.5 2.3-5.8 2.4-1.5 0.4-10.2 2.9-14.5 4.2-2.7 0.8-5.6 1.7-6.2 1.9-2.6 0.7 0 3.3 4 3.9 2.7 0.5 5.1 1.8 7 3.8 2.5 2.7 2.8 3.6 2.3 7-1.5 9.2-7.8 16.6-18.6 22.1-3.6 1.7-9.4 4.8-13 6.8-7.7 4.3-24.1 11.4-30.8 13.3-2.6 0.7-9 2.8-14.2 4.5-16.3 5.4-21.4 6.9-24 7.4-1.4 0.2-4.5 0.9-7 1.6-13.7 3.6-18 6-18 9.9 0 1-1.3 3.3-2.9 5-2.5 2.7-5.3 4.2-16.6 9.1-3.5 1.5-25.1 8-28.1 8.5-1.6 0.2-8 1.3-14.2 2.5-6.2 1.1-15.6 2.2-21 2.4-5.3 0.3-11.9 0.8-14.7 1.2-2.7 0.4-5.9 0.7-7 0.7-8.8-0.2-44.1-0.2-48.2 0-4.8 0.3-5.3 0.1-5.3-1.8 0-1.6 1.2-2.7 4.8-4.2 7.1-3.2 22.5-6.9 35.7-8.7 4.1-0.6 8.3-1.3 23.5-4 16.6-3 18.2-3.4 19.6-4.8 1.3-1.3 0.7-1.7-4.8-3.3-9.5-2.8-15.8-6.4-15.8-9 0-1.3 0.6-2.8 1.4-3.4 2.3-2 17.7-5.3 23.9-5.2 3.1 0.1 5.7-0.3 5.7-0.8 0-1.1 6.2-2.5 18-4.2 4.7-0.6 9.6-1.6 11-2.1 2.3-0.9 21.8-3.1 26.3-3 1 0.1 3.1-0.4 4.5-1 1.5-0.5 5-1.4 7.7-1.9 7-1.2 15.8-3.3 17-4 0.6-0.4 3.5-1 6.5-1.5 3-0.4 5.7-0.8 6-0.9 0.3-0.1 1.9-0.5 3.5-1 1.7-0.4 4.8-1.7 7-2.8 2.2-1.2 4.5-2.2 5.1-2.3 2.6-0.4 13.4-5.8 14.5-7.1 2.3-2.6-0.6-3.5-10.8-3.4-5.4 0-10.9 0.3-12.3 0.6-3.1 0.6-28.6 1.7-49 2-8.5 0.2-16.9 0.8-18.7 1.3-1.7 0.6-3.4 0.8-3.7 0.4-0.3-0.3-0.6 0-0.6 0.6 0 0.7 0.4 1.2 0.8 1.2 0.4 0 1.6 1.3 2.5 3 1 1.6 1.4 3 0.9 3-0.5 0-1.2 0.9-1.5 1.9-0.8 3-10.4 6.7-19.7 7.7-2.5 0.2-6.5 0.8-9 1.3-5.8 1.2-27.2 2.2-31.1 1.4-2.9-0.5-3-0.8-2.8-5.4 0.2-3.4-0.3-5.4-1.4-6.7-3.2-3.5-1.6-12.1 3.2-17.6 0.9-1 4.6-3.8 8.4-6.3 3.7-2.4 6.7-4.8 6.7-5.3 0-0.6 0.9-1 1.9-1 1 0 2.1-0.7 2.5-1.5 0.3-0.8 1.2-1.5 2.1-1.5 0.9 0 2.6-0.7 3.9-1.5 1.2-0.8 4.5-2 7.2-2.5 10.3-2.3 21-4 24.7-4 2.1 0 4.6-0.4 5.5-0.9 1-0.5 5.5-1.2 10.2-1.5 10.4-0.8 12.8-1.2 17.1-3.1 3.7-1.6 3.7-1.6-0.6-2.1-6.2-0.7-7.5-1.4-7.5-3.9 0-1.3 0.6-2.7 1.3-3.2 2.2-1.4 11-3.5 17.2-3.9 3.3-0.3 6.2-0.9 6.3-1.5 0.2-0.5 0.7-0.7 1.1-0.4 0.5 0.2 5.9-0.2 12.2-1.1 6.3-0.8 14.3-1.8 17.9-2.3 3.6-0.4 8.4-1.7 10.7-2.9 2.3-1.2 5-2.2 6-2.2 1 0 3.2-0.8 4.8-1.8 1.7-1 4.5-2.4 6.2-3 5.2-1.7 11.3-7.2 11.3-9.9 0-4.4-6.1-6-25.9-6.8-17-0.7-17.3-0.7-16.2 1.2 0.5 1.1 2.2 2.8 3.6 3.7 1.9 1.3 2.5 2.5 2.5 5.3 0 3.7-2.3 7.3-4.6 7.3-0.7 0-1.4 0.4-1.6 0.9-0.1 0.6-2.2 1.2-4.4 1.5-2.3 0.2-7.5 1.6-11.6 3-4.1 1.4-8.7 2.6-10.1 2.6-1.5 0-2.7 0.3-2.7 0.7 0 0.5-1.2 0.9-2.7 1-17.9 1-20 1-23.5-0.4-3.9-1.6-6.1-5.3-6.1-10.4 0-4.3 4.4-8.4 11.2-10.3 7.2-2 9.5-2 11.5-0.1 2.4 2.5 10.5 5.7 12.5 5 2.4-0.7 3.4-3.2 1.8-4.2-7.4-4.5-10.5-5.5-21.9-6.7-3.4-0.4-7.7 1.6-9.8 4.6-0.3 0.4-1.4 0.7-2.5 0.7-8.1 0.1-30.6 2.1-33 3-1.6 0.5-4.8 1.2-7 1.5-5.5 0.5-14.5 2.5-17.5 3.8-1.4 0.5-6.5 1.4-11.5 1.9-4.9 0.5-11 1.3-13.5 1.8-16.7 3.3-24.2 5.1-29.5 6.8-3.3 1.1-10 3.3-15 4.8-15 4.6-24.4 8.8-25.3 11.3-0.1 0.5 1.5 1.9 3.8 3.1 2.2 1.1 4 1.8 4 1.5 0-0.4 1.1 0.1 2.5 1 1.3 0.9 3.4 1.6 4.5 1.6 3.1 0 8.7 6.6 9.4 11 0.6 3.8-1.5 11-3.2 11-0.5 0-1.7 0.9-2.9 1.9-2.6 2.5-7 4.7-11.3 5.7-1.9 0.4-3.7 0.8-4 0.9-0.3 0.1-3.2 0.5-6.5 0.9-3.3 0.4-6.8 1-7.7 1.2-2.8 0.8-2.1 3 1.2 4.4 14.6 6 8.2 17.9-11 20.5-13.4 1.8-16.6 3.7-11.6 7 2.1 1.4 3.2 3.6 4.2 8.2 0.1 0.7-0.6 3.5-1.7 6.3-1 2.8-1.9 6.5-1.9 8.3 0 7.6-6.6 13.4-19 16.7-10.9 2.9-28.2 2.5-34.6-0.8-6.9-3.6-10.9-10.5-11.9-21.2-0.4-4.1-1.1-8.2-1.6-9.1-0.5-1-3.8-4-7.4-6.9-9.7-7.7-10.4-14-2.9-25.7 1.9-3 3.4-6.2 3.2-7-0.2-0.8-3.7-3.3-7.8-5.4-9.8-5-14.5-10.4-15.5-17.8-1-7-1.2-7.4-5.2-10-3.2-2.1-4.9-2.4-12.3-2.3-4.7 0-10.5 0.5-12.9 1.1-2.5 0.5-4.8 0.8-5.1 0.6-0.4-0.2-2.2 0-4.1 0.5-3.2 0.9-8.5 1.3-33.3 2.5-5.4 0.3-10.6 1-11.5 1.5-1.8 1-1.8 1 5.3 1.5 5.7 0.4 7.6 2.1 7.6 7 0 5.4-5.3 8.6-16.5 9.9-2.7 0.4-5.7 0.7-6.5 0.9-0.8 0.1-7.4-0.2-14.6-0.6-15.6-0.9-16.7-0.7-14.8 3.2 0.8 1.5 2.3 3.6 3.4 4.6 3.7 3.4 5.3 7.8 5.7 16 0.3 8.1-0.9 15.4-3.4 19-0.7 1.1-1.3 2.4-1.3 3.1 0 1.2-4.8 7-10.3 12.5-4 4-16 10.3-26.7 14-5.8 2-8.5 2.3-25.5 2.4-11.1 0.1-21 0.6-23.7 1.3-2.7 0.7-5.1 1.2-5.5 1.1-0.5-0.1-1-0.1-1.3 0-0.3 0.1-5.7 0.3-12 0.6-13.6 0.6-26.2 1.5-27 2-0.3 0.2-4.9 0.6-10 1-5.2 0.3-12.2 0.9-15.5 1.2-3.3 0.3-7.3 0.7-9 0.8-1.6 0.2-3.2 0.4-3.5 0.5-2.6 1-56.4 1.5-58 0.5-2.1-1.3-1.1-7.1 1.6-9.4 1.7-1.4 2.3-2.6 1.7-3.2-0.6-0.6-5-1.2-9.9-1.5-4.9-0.2-15-0.9-22.5-1.4-7.5-0.6-20.6-0.7-29-0.4-16.1 0.6-26.3-0.2-67.4-5-11.5-1.3-23.2-3-26-3.6-2.7-0.6-8.3-1.5-12.5-2-7.1-0.9-15.2-2.6-26.7-5.6-7.2-2-14.7-8.8-14.7-13.5 0-1.9 0.8-4.7 1.9-6.2 2.5-3.9 11.5-9.5 18.9-11.8 3.4-1.1 7.5-2.6 9.1-3.3 1.7-0.8 5.7-2 9-2.6 11.1-2.2 13.2-2.7 14.1-3.3 1-0.6 6.3-1.5 13.5-2.2 2.4-0.3 6.7-0.9 9.4-1.5 2.8-0.5 5.9-0.9 7-0.9 3.5 0.1 27.8-3 34.6-4.4 7.8-1.7 8.9-2.2 8.9-4.6 0-1.5-1.4-2.1-7.9-3.1-8.9-1.4-16.5-0.9-35.1 2-6.9 1.1-15.4 2.5-19 3-3.6 0.6-7.8 1.3-9.5 1.6-1.6 0.3-5.5 0.9-8.5 1.4-15.3 2.5-23.2 4.2-30 6.5-4.1 1.5-8.2 2.8-9 3-4.5 1.1-19.4 6.6-21.9 8.1-1.7 1-3.5 3.1-4.2 4.6-1.6 4-0.6 11.1 2.2 14.8 4.1 5.3 13.2 14.1 17 16.6 2.1 1.3 4.1 3.6 4.7 5.4 0.6 1.7 0.7 2.8 0.2 2.5-0.4-0.3-1 0-1.2 0.7-1 2.8-19.6-1.1-29.8-6.3-1.9-1-7.4-3.4-12.2-5.3-11.4-4.7-15.3-7-21.1-12.5-5.5-5.2-8.3-12.5-7.2-18.5 0.9-4.4 8.7-13.3 14.5-16.4 8.3-4.4 26.2-10.4 36.5-12.3 3.3-0.6 8-1.5 10.5-2 2.5-0.4 5.9-1.1 7.5-1.4 1.7-0.3 3.6-0.8 4.4-1.1 1.3-0.4 12.7-1.7 25.3-2.9 2.1-0.2 4.3-0.7 5-1.1 0.7-0.4 6.2-0.9 12.3-1.1 6-0.2 17.3-0.5 25-0.8 7.7-0.2 16-0.8 18.5-1.2 2.5-0.4 9.5-0.9 15.5-0.9 11-0.2 24.2-1 34.5-2.2 4.5-0.6 5.7-1.1 6.7-3.2 3.1-6.1 1.1-8.3-6.9-7.9-2.4 0.1-7.1-0.6-10.5-1.6-5.2-1.4-6.7-2.4-8.4-5.2-3.7-5.9-5.9-6.5-23.2-5.7-25.5 1.2-26.7 1-26.7-5.1 0-3.9 5.6-10.4 11.8-13.5 2.3-1.2 4.5-2.6 4.8-3.1 0.3-0.5 1.5-0.9 2.7-0.9 1.6 0 1.8-0.3 1-1.1-2-2-15-2.2-36.8-0.4-11.5 0.9-22.3 1.8-24 2-1.6 0.2-6.6 0.7-11 1-15.4 1.2-19 1.6-20.8 2.1-1 0.3-3 0.7-4.5 0.9-1.5 0.2-5.6 1-9.2 1.8-3.6 0.8-9.3 1.8-12.7 2.2-4.1 0.5-6.3 1.2-6.7 2.2-0.5 1.1-1 1.2-1.9 0.5-0.9-0.8-2.6-0.7-5.7 0.3-12 3.8-18.2 5.5-25.5 7.1-11.6 2.4-16.9 3.2-17.7 2.7-1.4-0.8-0.8-4 1-5.5 3.4-3.1 24.7-12.9 32.1-14.9 4.2-1.1 9.9-2.8 12.6-3.8 6.8-2.6 16-4.9 22-5.6 2.8-0.4 7-1.5 9.4-2.6 2.4-1 5.3-1.9 6.4-1.9 2.5 0 9.7-2.1 9.7-2.9 0-0.3 2.8-0.7 6.3-0.9 8.3-0.4 18.3-2.6 23.2-5.1 2.2-1.1 3.7-2 3.3-2.1-0.4 0-3.3-0.7-6.5-1.6-3.2-0.8-9.4-1.8-13.8-2.1-11.5-0.7-14.8-3.5-10.9-9.1 2.9-4.2 7.5-4.8 28.4-3.6 7.3 0.4 10.2 0.2 9.5-0.5-1-1-16.2-3.1-19.9-2.8-1 0.1-2.3-0.6-3-1.6-1.5-2.3 0-4.7 4.4-6.9 1.9-1 5.1-3.5 7.2-5.6 3.5-3.7 4.3-4 11-4.6 16.7-1.5 27-2.9 46.3-6.3 5-0.9 11.3-1.6 14-1.6 2.8 0.1 10 0.2 16 0.3 7.8 0.1 12.7 0.7 16.7 2.1 5.9 2 14.8 2.6 14.8 1 0-0.5-6.2-7.2-13.7-14.9-17.5-17.7-19.5-20.3-28.3-37.2-2.3-4.3-7.1-20.1-13.8-45-1.1-4.1-2.3-9.1-2.7-11-0.3-1.9-1.2-6.2-2-9.5-1.8-7.8-2.4-26-0.9-27.5 2.7-2.7 19.2-3.4 27.9-1.2 2.2 0.6 6.7 1.3 10 1.6 5.8 0.6 12.2 1.8 19.5 3.7 1.9 0.5 6.2 1.4 9.5 2 3.3 0.6 10.2 2.2 15.4 3.6 5.9 1.5 12.5 2.5 18.2 2.6 8.5 0.2 8.9 0.1 11.8-2.7 1.7-1.7 3.1-3.6 3.1-4.5 0-0.8 0.6-2.2 1.3-3 1.1-1.4 6.4-12.5 10.2-21.6 2.6-6.4 3.7-12.5 3-17.2-0.6-4.6-1.4-5.5-14.4-18.3-12.6-12.4-14-14-15.6-19.3-1.5-4.7-1.7-7.7-1.2-16.1 0.4-5.7 1.1-12.5 1.6-15.2 0.5-2.7 1.5-9 2.2-13.9 2.5-18.6 7.6-33.8 13.2-39.9l3.8-4.1h11.7c11 0 11.9-0.2 15.9-2.7 2.3-1.5 4.5-3.2 4.8-3.9 0.9-1.4 11-5.9 14.5-6.5 2.5-0.4 5.6-1.9 32.5-15.6 8.3-4.2 16.4-8 18-8.4 1.7-0.4 3.8-1.5 4.8-2.5 1-1.1 2.3-1.9 2.9-1.9 1.9 0 28.1-12.2 31.5-14.7 1.8-1.3 5.2-3 7.5-3.8 2.4-0.9 5.2-1.9 6.3-2.4 1.1-0.5 6.9-3.2 12.9-6 5.9-2.8 12-5.4 13.5-5.7 1.4-0.4 5.5-2.1 9.1-3.9 7.1-3.5 13.1-6 17-7.1 1.4-0.3 3.2-1.2 4-1.9 0.8-0.6 4.4-2.2 8-3.5 3.6-1.3 7-2.7 7.6-3.2 0.6-0.4 3.5-1.5 6.3-2.4 2.8-0.8 9.3-3.4 14.4-5.9 6.6-3.1 11.6-4.7 17.7-5.6 4.7-0.7 9.4-1.8 10.5-2.6 1.1-0.7 2.9-1.3 4-1.3 1.1 0 4-0.7 6.5-1.6 2.5-0.9 10.1-1.9 17-2.3 19.4-1.2 25.9-0.2 37.2 5.5zm-42.2 4.2c-2.5 0.7-7 1.5-10 1.7-3 0.3-6.6 0.9-8 1.4-1.4 0.5-5.5 1.9-9.1 3-3.6 1.1-15.3 5.9-26 10.7-10.7 4.7-21 9.2-23 9.9-1.9 0.7-10.1 4.5-18.1 8.4-8 3.9-15 7.1-15.6 7.1-0.5 0-5.7 2.4-11.4 5.2-10.6 5.4-16.9 8.2-22.3 10.1-1.6 0.5-3.7 1.5-4.5 2.2-0.8 0.6-3.1 1.8-5 2.5-6.4 2.4-46.3 20.8-50 23-0.8 0.5-3.5 1.9-6 3-2.5 1.1-5.5 2.6-6.7 3.3-1.2 0.6-5.5 2.9-9.5 5.1-10.1 5.3-12.1 7.3-11.4 11.4 0.6 3.7-2.5 13.3-6.5 20.2-5.4 9.2-7.2 13.7-8.6 20.5-1.4 7.6-1.7 17.7-0.5 18.9 0.4 0.4 0.7 1.3 0.7 1.9 0 0.8 1.8 1.1 5.3 1 2.9-0.1 5.1 0.1 4.8 0.5-0.2 0.4 0.4 0.9 1.5 0.9 1 0.1 2.6 0.9 3.5 1.7 0.8 0.9 2.2 1.6 2.9 1.6 0.8 0 3 0.8 5 1.7 3.4 1.6 3.6 1.6 6.1-0.3 1.4-1 3.2-3.7 4-5.9 1.5-4.6 1.1-7-3.6-19.3-2.4-6.2-3-9.2-2.6-11.7 0.8-4.2 4-6.7 7-5.6 9.5 3.6 16.8 4.1 21.9 1.4 6.4-3.3 12-4.2 17.5-2.8 9.7 2.6 13.7 6.4 13.7 13.2 0 4.1-0.4 4.9-4.8 8.7-2.6 2.2-4.7 4.5-4.7 4.9 0 1.6 4.6 5.5 11.8 10 3.9 2.6 7.2 5.3 7.2 6.2 0 0.8 0.9 2.9 2 4.7 1.1 1.8 2 4 2 4.9 0 2.8-3.8 5.7-9.2 6.9-2.9 0.6-6 1.4-6.8 1.8-0.8 0.3-2 0.6-2.5 0.7-2.3 0.1-12.5 6.6-13.9 8.8-1.2 1.8-1.4 3.5-0.7 7.6 1.5 9.2 0.4 20.9-2.4 26.7-2.7 5.5-14.8 18.5-23.3 24.8-4.3 3.3-5.4 4.9-6.6 9-2.1 7.3-3.4 8.5-8.6 8.7-6.4 0.3-7 0.7-7 4.6 0 2.8 0.8 4.2 4 7 4.2 3.8 4.9 4.3 12.8 8.5 4 2.2 6.5 2.8 11.4 2.8 5.7 0 6.9 0.4 13.2 4.5 3.8 2.5 7.6 4.5 8.4 4.5 2.8 0 11.1 6.1 12.8 9.3 1.1 2.2 1.7 6.8 2 14.7 0.5 12.2 1.9 19 4 19 0.7 0 1.4 0.5 1.6 1 0.2 0.6 3.3 1.3 6.9 1.6 9 0.9 11.5-0.7 16.2-10.1 6.8-13.8 6-18.3-4.5-26.8-5.4-4.5-25.2-15.5-29.1-16.2-3.7-0.8-14.7-6.7-15.7-8.6-0.9-1.5-0.5-2.1 2-3.4 2.7-1.4 5-1.5 18.8-0.5 8.6 0.7 17.3 1.3 19.2 1.4 1.9 0.1 4 0.5 4.6 0.8 0.6 0.4 6.4 1.2 13 1.7 6.5 0.6 17.7 1.5 24.9 2.1 7.1 0.6 13.4 1.5 13.9 2 0.6 0.6 2.6 1 4.6 1 2.7 0 4.3-0.7 6.3-2.8 1.5-1.5 2.7-3.2 2.8-3.8 0-1.2 4.9-8.2 12.8-18.5 3.5-4.6 7-9.7 7.7-11.4 0.7-1.7 2.2-3.9 3.3-4.9 1.1-1 3-3.7 4.1-6 1.2-2.2 3.6-5.7 5.4-7.6 1.8-1.9 6.8-8.9 11.1-15.5 4.3-6.6 10.2-15.2 13.1-19.1 2.8-3.9 6-8.6 6.9-10.4 0.9-1.8 4.1-6.6 7.1-10.6 3-4 5.4-7.6 5.4-7.9 0-0.4 1.5-3 3.3-5.8 7.2-11.2 8.7-13.7 8.7-14.2 0-0.3 1.9-3.6 4.1-7.3 2.3-3.7 5.6-9.4 7.4-12.7 4.9-9.1 8.7-15.9 9.5-17 0.4-0.6 3.7-6.7 7.3-13.7 18.6-35.7 25.6-61.7 21.3-79.4-3.4-14.1-7.1-20.4-14.6-25.3-6.1-4-10.1-5.6-17-7-8.1-1.7-23.7-1.8-29-0.3zm-276 136.2c-2.4 0-8 5.4-8 7.7 0 1-0.6 2.5-1.2 3.1-2 2-1.8 21.7 0.3 23.7 1.4 1.5 1.7 1.4 3.5-0.2 2.2-2 3.6-5.7 5.5-14.8 0.7-3.3 1.6-6.5 2-7 1.6-2.1 2.2-9.4 0.9-11-0.7-0.8-2-1.5-3-1.5zm19.3 50.3c-1.8-0.6-4 5.5-4.8 13.5-0.7 6.8-0.6 7.2 2.4 11.6 1.7 2.4 3.9 4.7 4.9 5 0.9 0.3 8.4 0.7 16.5 1l14.9 0.5 11.6 6.6c6.3 3.7 13 6.9 14.7 7.2 3 0.5 3.3 0.2 4.8-3.9 2.8-7.1 2-12.9-1.8-14.6-2-0.9-2.9-0.6-6.1 1.9-2 1.6-4.3 2.9-5.1 2.9-1.7 0-19.5-5.6-25.3-8.1-2.5-1-6.3-2.1-8.5-2.5-9.1-1.5-11.9-4.4-15.6-16.3-0.8-2.5-1.9-4.6-2.6-4.8zm430.7 39.7c-2 2-2.6 6.6-2.1 16 0.5 8.3 0.3 22.7-0.2 25.5-0.4 1.6-1.3 5.2-2.1 8-0.9 2.7-1.3 5.1-1.1 5.4 0.3 0.2 0.1 0.9-0.4 1.5-0.4 0.6-1.7 4-2.7 7.5-1.4 4.8-2.9 7.5-6.2 10.7-5.4 5.4-7.7 6.2-10 3.5-1.9-2.4-7.6-3.5-10.2-2.1-1.4 0.7-1.5 1.8-1 5.9 0.5 3.9 0.2 6-1.3 9.2-4.4 9.6-2.7 15 3.1 9.7 2.5-2.4 8.2-4.6 15.7-6.3 2.8-0.6 10.4-5.8 15.2-10.4 1.3-1.2 2.6-2.1 3-2 1.6 0.2 10.6-9.8 12.3-13.7 1-2.3 2.1-6.6 2.5-9.5 0.9-7.3 0.9-34.8 0-43.9-0.9-8.7-1.8-11.6-4.7-14.8-2.7-2.8-7.1-2.9-9.8-0.2zm-439.5 76c-7.2 1.8-8.5 2.6-8.5 4.9 0 1.7 3.9 6.1 5.4 6.1 0.4 0 3.9 1.5 7.9 3.4 8.8 4.1 18.9 7.6 22 7.6 2.4 0 8.1 1.9 11.1 3.6 2.1 1.3 2.4 5 0.7 9.2-1 2.5-0.9 3.4 0.8 6.3 2.8 4.8 8.1 8.6 13.6 9.7 1.1 0.2 6.6 0.6 12.3 0.9 15.1 0.7 18-2 13.2-12.5-3-6.5-5.8-10-9.8-12.2-2.1-1.1-7.7-4.9-12.7-8.4-9.9-7.1-17.3-11.3-28-15.8-9-3.8-19.6-4.9-28-2.8zm176.3 10.8c-1.4 2-4.3 5.6-6.4 8-3.5 4-7.6 9.4-12.1 16.2-0.9 1.4-2.6 3.6-3.7 5-1.1 1.4 0.6-0.1 3.9-3.2 4.9-4.6 6.6-5.6 9.1-5.5 1.7 0.1 3.8 0.9 4.6 1.8 2 2 3.3 7.4 2.9 12.4-0.3 5 1.6 7 7.9 8 2.5 0.4 5.1 1.2 5.7 1.7 0.7 0.6 1.9 0.8 2.7 0.5 0.8-0.3 1.7-0.1 1.9 0.6 0.3 0.9 1.5 0.8 4.8-0.3 3.8-1.3 4.5-2 6.1-6.5 1.5-4 1.7-5.7 0.8-8.7-1.2-4.3-7.4-11.1-10.4-11.5-1.2-0.2-4.9-0.7-8.4-1.3-3.4-0.6-6.6-0.9-7-0.6-0.4 0.2-2.2-0.2-4-0.9-4.3-1.8-4.3-5.3 0-10.9 1.8-2.2 3.5-4.3 3.8-4.6 0.4-0.3 0.9-1.3 1.3-2.3 1.1-3-0.9-1.8-3.5 2.1zm136-2.8c-2.2 0-2.2 0.1 0.7 2.5 1.7 1.3 3.5 2.4 4 2.5 0.6 0 2.3 0.7 3.9 1.5 4.6 2.4 4 1.2-1.4-2.8-2.7-2-6-3.7-7.2-3.7zm351.8 2.1c-0.6-0.5-2-0.5-3.1 0-1.1 0.4-3.6 0.8-5.6 0.8-4.4 0.1-9.9 1.9-11.9 3.8-1.3 1.3-1.1 1.4 1.5 1 4.5-0.9 16.8-2.1 18.2-1.8 0.7 0.1 1.7-0.9 2.4-2.1 0.6-1.3 0.8-2 0.4-1.6-0.5 0.4-1.3 0.4-1.9-0.1zm-333.2 9c-3.4-1.2-5.2-1.4-4.1-0.7 0.9 0.7 1.7 1.6 1.7 2 0 2.5 10.5 9.6 14.3 9.6 3.4 0 3.2-3.1-0.4-6.1-1.9-1.6-3.9-2.9-4.5-2.9-0.6 0-3.7-0.9-7-1.9zm-105.4-0.3c0 1.8 1.5 2.2 9.4 2.3 4.2 0.1 7.9 0.5 8.2 1 0.7 1.2 7.8 1.1 9-0.1 0.7-0.7 1.9-0.8 3.6-0.1 3.6 1.4 4.4 0.1 1-1.6-3.5-1.8-31.2-3.2-31.2-1.5zm365.9 0.6c-0.2 0.3-2.9 0.6-5.9 0.6-7 0.3-9 0.8-9 2.5 0 1.5 6.5 3 8.3 1.8 0.6-0.4 4.4-0.8 8.4-0.8 6.9-0.1 11-1.6 9.7-3.6-0.5-0.9-10.7-1.3-11.5-0.5zm-58.1 2.1c-0.7 0.7-10.9 1.5-20.8 1.7-4.7 0-9.4 0.4-10.5 0.8-1.8 0.6-1.8 0.8 0.7 2.4 2.3 1.5 4.4 1.6 15.9 1.2 21.8-0.9 25.9-1.9 20.7-4.8-2.6-1.4-5.3-2-6-1.3zm236.2 0.6c-1.7 0.3-5.9 1.8-7.5 2.6-2.5 1.3-7.8 3.2-12.9 4.5-2.8 0.8-4.7 0.8-7 0-4.4-1.6-5.4-1.5-6.1 0.6-0.7 2.5-22.6 13.4-38.5 19.2-17.5 6.4-16.3 6.1-18.1 4-1.5-1.8-4-11-5.4-20-1.4-9.4-1.4-9.3-5.4-8.6-2 0.3-5.2 0.8-7.1 1.1-1.9 0.3-5.9 1-8.9 1.5-2.9 0.5-5.7 0.8-6.1 0.5-1.4-0.9-4 0.7-4 2.4 0 3.3 5.8 11 8.7 11.7 1.5 0.3 4.8 1.2 7.2 2 2.5 0.8 5.4 1.4 6.6 1.4 3.9 0 6.5 2.8 6.1 6.3-0.7 4.9-1.4 6.1-4.5 7.5-2.4 1.1-20.5 7-23.6 7.8-0.5 0.1-4.8 1.2-9.5 2.3-4.7 1.2-9 2.1-9.6 2.1-2 0-4.3-6.8-4.5-13.6-0.3-7.4-3.7-21.6-5.7-23.6-1.4-1.4-16.7-1.1-23.2 0.6-1.4 0.3-4.6 0.7-7.3 0.9-2.6 0.2-4.7 0.6-4.7 1-0.1 4.4 4.1 9.9 8.5 11.3 2.2 0.7 8.5 6.3 8.5 7.6 0 2 6.5 6.8 9.2 6.8 5 0 6.8 1.6 6.8 5.9 0 4.5-2.4 6.6-8.6 7.6-2.1 0.3-6.8 1.2-10.4 2.1-10.1 2.3-16.4 3.5-18 3.5-0.8 0-3.4 0.5-5.8 1.1-3.6 0.9-4.5 0.8-6.2-0.7-1.9-1.7-6.4-15.1-8.9-26.5-0.7-3-1.9-7.9-2.8-10.8l-1.6-5.2h-17.8c-11.7 0-18 0.4-18.5 1.1-0.8 1.4 4.9 7.3 11.1 11.3 2.8 1.8 5.6 4 6.4 4.9 0.7 0.9 3.2 2.6 5.5 3.8 9.8 5 14.7 16.3 9 20.8-1.5 1.2-3.5 2.1-4.6 2.1-1 0-3.2 0.7-4.9 1.5-3 1.6-11 3.4-18.3 4.1-2.3 0.2-6.2 0.6-8.7 1-3.4 0.5-6.1 0.1-10-1.3-6-2.2-8.9-2-8.9 0.5 0 2.3 5.7 5.3 10.1 5.4 1.9 0 4.5 0.6 5.8 1.3 1.6 0.8 3.6 1 5.5 0.5 1.7-0.5 7.8-1.4 13.6-2 5.8-0.7 15.2-1.8 21-2.5 5.8-0.7 14.4-1.3 19.2-1.3 4.7 0 9.5-0.5 10.6-1.1 1.2-0.6 3.3-1.1 4.8-1.1 4.3 0 21.7-3.3 36.4-7 4.7-1.1 10.3-2.3 12.5-2.7 6.4-0.9 36.8-9.3 39.1-10.8 1.2-0.8 5.2-2.1 9-3 3.7-0.8 7.2-1.9 7.8-2.4 0.6-0.5 2.6-1.2 4.5-1.6 1.9-0.4 4.8-1.6 6.5-2.6 1.7-1.1 4.9-2.4 7.1-3 2.2-0.6 6.8-2.4 10.3-4 3.5-1.6 6.8-2.9 7.3-2.9 0.5 0 2.7-0.9 4.8-1.9 2-1.1 6.6-2.9 10.1-4.1 10-3.4 27.8-13.4 32.9-18.5 0.8-0.8 1.3-1.5 1.1-1.4zm22.4 1.2c-12.3 7-22.8 12.9-26.9 15.1-6.9 3.6-34.2 17-38.5 18.9-20 8.7-38.7 15.4-62 22.2-6.9 2-14.3 4.3-16.5 5-2.2 0.7-8.5 2.3-14 3.5-5.5 1.2-14.7 3.4-20.5 4.8-5.8 1.3-11.4 2.6-12.5 2.8-1.1 0.1-4.5 0.8-7.5 1.4-10.7 2.2-16.5 3.2-20.5 3.6-6.1 0.5-18.9 1.6-19.5 1.6-0.3 0-1.4 0.4-2.6 0.8-1.1 0.5-4.5 1.1-7.5 1.5-3 0.4-5.7 0.9-6.1 1.1-0.4 0.3-3.4 0.7-6.5 1-3.2 0.3-6.2 0.9-6.6 1.4-0.8 0.7 8.2 6.8 15.6 10.7 4.5 2.3 13.3 6.3 13.9 6.3 0.4 0 2.6 1.3 5 2.9 9.3 6.2 15.8 7.1 26.3 3.7 2.2-0.8 7.6-2.1 12-3.1 4.4-1 9.2-2.2 10.7-2.7 1.4-0.5 3.7-0.9 5-0.7 1.2 0.1 5-0.1 8.3-0.5 3.3-0.4 11-0.9 17-1.1 21.7-0.7 36-1.7 37.9-2.7 1-0.6 5.1-1.6 9-2.3 22.2-4 62.1-20.5 69.9-28.9 3.5-3.6 14.8-20.4 19.7-29.1 1.8-3.3 5.6-9.3 8.3-13.4 4.5-6.7 9.2-15.1 12.4-22.4 1.4-3.1 0.3-3.5-3.3-1.4zm-563.4 11.1c0 2.3 3.2 7.7 4.9 8.4 0.9 0.3 3.8 2.3 6.4 4.4 3.7 2.8 5.8 3.8 8.6 3.8 2 0 4.8 0.8 6.1 1.7 1.4 1 4.2 2.6 6.4 3.8 3.9 2 4.4 2.6 6.4 7.5 2.5 6.6 3.6 8 5.9 8 2.3 0 2.3 0 2.3-13.4 0-14.2-0.5-16.9-4.2-21.1-1.7-2-3.1-2.6-6.3-2.6-2.2 0.1-8.7-0.4-14.5-0.9-20.9-1.9-22-1.9-22 0.4zm69.8 2.4c-4.5 0.2-6.8 0.7-6.8 1.5 0 2 3.7 7.4 8 11.7 4.6 4.6 10.1 5.6 12 2.1 1.4-2.7 1.2-9.1-0.3-12-1.5-3-4.2-3.7-12.9-3.3zm-364.8 4.1c0 1.3 7.5 7.1 9.1 7.1 0.8 0 2.8 0.7 4.4 1.6 5.3 2.8 18 6 18.8 4.6 0.2-0.4 0.2-0.2 0.1 0.5-0.3 1.3 4.7 3.3 8.4 3.3 1.3 0 4.1 0.4 6.1 0.9 2 0.5 7.2 1.7 11.6 2.7 4.4 0.9 8.5 2 9 2.4 0.6 0.4 3 0.8 5.5 0.9 2.5 0 7 0.6 10 1.2 3 0.7 8.2 1.3 11.5 1.4 3.3 0.1 8.7 0.4 12 0.8 3.3 0.4 8.6 0.9 11.7 1.1 3.1 0.2 6.2 0.7 6.7 1.1 0.6 0.3 3.5 0.6 6.3 0.7 2.9 0 5.8 0.3 6.3 0.8 1.6 1.3 10.4 3.1 18.5 3.9 4.1 0.4 8.5 1.3 9.7 1.9 1.2 0.7 4.4 1.2 7.2 1.2 3.9 0 5.6-0.6 8.1-2.6 4.8-4.1 2.8-5.4-10.5-6.9-15-1.8-36.4-5-43.2-6.6-5.2-1.1-10-1.8-18.4-2.3-3.5-0.2-10.4-1-15.4-1.6-4.9-0.7-10.8-1.3-13.1-1.5-2.3-0.1-4.5-0.5-5.1-0.8-0.5-0.3-3.2-0.9-5.9-1.2-2.7-0.4-6.7-1.1-8.9-1.8-2.2-0.6-4.3-1-4.7-0.9-0.4 0.1-3.8-0.5-7.5-1.3-3.7-0.9-8.4-1.8-10.3-2-1.9-0.3-6.3-1.5-9.8-2.6-3.4-1.2-6.9-1.8-7.7-1.5-0.8 0.3-1.7 0.1-2-0.4-0.3-0.5-3.1-1.2-6.2-1.6-3.1-0.3-6.8-1.3-8.2-2-3.1-1.6-4.1-1.7-4.1-0.5zm453 9.5c0 2.1 5.5 5.9 11.5 8.1 2.8 0.9 5.9 2.3 7 3 1.1 0.6 4.9 2.2 8.4 3.4 8.2 2.8 10.9 4.2 20.8 10.7 5.7 3.8 9 5.4 11 5.2 1.6-0.1 3.5 0.2 4.2 0.6 0.9 0.6 1.2 0.5 0.9-0.4-0.2-0.8-3.3-2.9-6.9-4.8-3.5-1.8-7.1-4-8-4.8-0.8-0.8-2.1-1.4-2.7-1.4-0.7 0-1.2-0.3-1.2-0.8 0-0.4-0.9-1.2-2-1.7-8.5-4.2-14.1-7.3-17.6-9.7-2.3-1.5-4.8-2.8-5.5-3-0.8-0.2-1.6-0.5-1.9-0.8-0.3-0.3-1.8-1.5-3.5-2.6-3.9-2.7-14.5-3.4-14.5-1zm-432.2 20.2c-0.5 0.4-0.8 1.7-0.8 2.8 0 2.1 4.7 17.5 7 23.1 0.7 1.6 1.6 4 2.1 5.2 5.6 14.4 8 19.4 12.1 25.7 2.5 3.8 5.3 6.9 6.7 7.4 1.3 0.4 5.1 0.4 8.3-0.1 4.6-0.8 7.2-0.6 12.6 0.8 16.8 4.3 28.7 5.5 40.5 4 5-0.6 6.4-1.3 10.7-5.4 2.8-2.6 4.7-5.1 4.3-5.6-0.5-0.4-0.2-0.5 0.5-0.1 0.8 0.5 4.3-2.1 9.9-7.6 4.7-4.6 9.6-9.2 10.8-10.3 15.6-13.9 19.7-19.7 14.5-20.3-1.4-0.2-3.2-0.6-4-0.9-0.8-0.4-2.6-0.7-4-0.8-1.4-0.2-3.4-0.5-4.5-0.8-1.1-0.2-6-1-11-1.7-4.9-0.6-10.3-1.6-12-2-1.6-0.5-8.6-1.6-15.4-2.5-9.9-1.2-12.7-1.2-13.3-0.2-0.6 0.9-1 0.9-1.7-0.2-0.5-0.8-2.2-1.5-3.8-1.7-6.3-0.6-20.2-2.4-26.3-3.4-3.6-0.6-9.6-1.5-13.5-2.1-3.8-0.5-9.5-1.4-12.5-1.9-8.5-1.6-16.4-2.3-17.2-1.4zm177.7 3.9c-1.4-0.4-2.4 0.1-3.5 1.7-3 4.7-2.3 5.4 6.4 6.8 4.5 0.7 8.9 1.7 10 2.2 1 0.6 5.7 1.2 10.5 1.4 10.1 0.5 16.8 1.1 27.1 2.5 10.2 1.5 12.1 1.7 23 2.4 5.2 0.3 9.7 1.1 10.1 1.7 0.4 0.6 3.8 1.2 7.6 1.4 10.2 0.4 23.5 1.3 26.3 1.8 2.8 0.5 23.2 1.7 36.2 2.1 4.8 0.2 9.1 0.6 9.6 0.9 2.8 1.7 86 2.6 113.2 1.3 9.1-0.5 24.4-0.9 34-1 10.8-0.1 18.2-0.6 19.4-1.3 1.7-1 1.2-1.5-4.8-4.9l-6.7-3.7-18.5 0.7c-10.2 0.3-19.9 0.8-21.6 1.1-13.3 1.6-59 1.8-94.3 0.3-23.8-1-27.7-1.2-39.1-2.5-3.3-0.3-9-0.7-12.9-0.8-3.8-0.2-8.3-0.3-10-0.4-1.6-0.1-4.3-1.3-5.9-2.7-2.2-1.9-3.2-2.2-4.3-1.4-0.7 0.6-1.3 0.8-1.3 0.3 0-0.4-1 0.2-2.2 1.3-1.5 1.4-3.3 2-5.3 1.8-9.5-1.1-16.6-1.8-21-2.1-8.9-0.7-16.4-1.6-22-2.9-1.1-0.2-5.1-0.7-9-1-3.8-0.3-9.7-1-13-1.5-3.3-0.4-6.7-0.9-7.5-0.9-0.8-0.1-2.8-0.3-4.5-0.5-1.6-0.2-5.2-0.7-8-1-2.7-0.3-7.5-1-10.5-1.6-3-0.5-6.4-1.2-7.5-1.5zm-20.6 10.5c-2.1 0-4.4 2.6-3 3.4 0.6 0.4 0.8 1.3 0.4 2.2-0.6 1.6-13.5 14.7-35.7 36.1-7.5 7.2-13.6 13.6-13.6 14.2 0 2.1 4.7 4 12 4.8 9.8 1 7.9 1.1 32.7-1.6 4.6-0.5 8.9-1.4 9.7-2 0.7-0.6 3.8-1.1 6.7-1 3 0 12.4-0.1 20.9-0.4 8.5-0.3 15.9-0.2 16.5 0.1 0.5 0.4 4.4 1.2 8.5 1.9 4.1 0.6 8.4 1.4 9.5 1.7 1.1 0.3 4.5 1.2 7.5 2 6.4 1.7 24.7 3.7 34 3.8 3.6 0 8.1 0.5 10 1.2 2.9 0.9 16.1 1.1 33.5 0.5 1.1-0.1 5.6-0.7 10-1.5 4.4-0.7 11.8-1.6 16.5-1.9 11.4-0.7 42.9-0.6 51 0.2 9.2 1 41.4 0.9 55 0 11.9-0.8 18.2-1.8 26-4.3 4.3-1.3 9.9-2.6 16.5-3.8 7.5-1.5 20.2-1.6 33.5-0.5 21.9 1.8 51.7 2.2 56.7 0.8 6.3-1.7 7-3.1 3.1-6.1-1.8-1.4-4.4-2.9-5.8-3.3-1.4-0.4-4.6-2.3-7.3-4.1-2.6-1.9-5.1-3.4-5.5-3.4-0.4 0-2.3-1.1-4.2-2.5-1.9-1.4-4.1-2.5-5.1-2.5-0.9 0-2.2-0.7-3-1.6-3-3.6-6.9-4.6-19-4.6-6.5 0-14.6 0.3-18.1 0.7-13.2 1.4-137.2 2.3-154.8 1.2-12.5-0.8-18.9-1.4-24.7-2.1-2.6-0.3-8.4-0.9-12.8-1.2-4.4-0.3-9.8-0.7-12-0.9-2.2-0.2-8.5-0.6-14-1-5.5-0.3-12.7-0.9-16-1.2-3.3-0.3-7.1-0.5-8.4-0.4-1.3 0.1-2.9-0.3-3.5-0.7-0.6-0.4-2.2-0.9-3.6-1-2.8-0.2-28.8-3.1-33.5-3.8-1.6-0.2-7.7-0.9-13.5-1.4-5.8-0.6-11.8-1.3-13.5-1.6-1.6-0.3-4.1-0.7-5.5-0.9-8.1-1-18.5-2.8-25.3-4.3l-7.9-1.7 0.4-3.7c0.3-3 0-3.8-1.3-3.8zm517.6 56c-4.1 0-7.7 0.5-8 1-0.4 0.6-1 0.8-1.4 0.6-1.1-0.7-12 3.9-14 5.9-1.5 1.5-1.3 2 3.2 6.1 6.1 5.5 11.7 7.3 21.7 6.8 4.3-0.2 10.5 0.2 14.5 1.1 3.9 0.8 11.3 1.6 16.6 1.8 5.4 0.3 10.1 0.7 10.5 1 0.5 0.3 3.2 0.7 5.9 1 2.8 0.3 6.3 1.1 7.8 1.6 1.6 0.6 5.9 1.1 9.7 1.1 8.3 0 14.3 2.1 15.9 5.6 1.8 4.1 1.4 10.8-1 13.8-5.6 7.2-25 18.1-35.3 20-1.4 0.3-3 0.7-3.5 1-0.5 0.3-2.6 0.8-4.7 1.1-6.9 1.1-16.4 4.9-16.4 6.7 0 0.4-0.9 0.8-1.9 0.8-1.1 0-2.2 0.4-2.5 0.9-0.8 1.2 11.2 1.9 14.3 0.9 1.3-0.5 6.6-1.1 11.7-1.3 5.7-0.2 10.5-1 12.3-2 1.7-0.8 4-1.5 5.3-1.5 7.7 0 31-7.1 34.9-10.6 1.8-1.6 1.8-1.7 0-3.3-2.9-2.6-3.4-5.5-1.2-8.2 2.1-2.7-0.2-2.5 36.6-3.2 16.6-0.4 19.7-0.7 24.8-2.7 7.4-2.8 14.2-6.6 13-7.3-2.4-1.5-24.8-2.7-49.4-2.7-19.1 0-23.5-0.8-25-4.7-1.3-3.6 2-9.2 8-13.4l5-3.6-7.2-1.6c-6.1-1.4-11.9-1.6-37.7-1.3-32.6 0.4-47.5-0.7-49.2-3.8-0.5-0.8-2-2.9-3.4-4.5-2.4-2.9-3-3.1-9.9-3.1zm-747.3 8.6c-3 0.8-5.8 1.2-6.3 0.8-0.5-0.3-0.9-0.1-0.9 0.4 0 1-3.8 2.3-7.5 2.7-5.1 0.4-10.2 1.7-11.9 3.1-1.9 1.3-1.9 1.6-0.3 4.8 0.9 1.9 2.6 3.7 3.9 4.1 4.2 1.2 7.8 3 7.8 3.8 0 0.5 0.4 0.6 0.9 0.2 0.5-0.3 1.9 0.8 3 2.4 2.3 3.2 2.9 10.8 1.1 14.2-1.4 2.6 1.4 3.8 4.4 1.9 6.4-4.1 12.2-6.3 16.6-6.6 9.6-0.5 17.8-4 15.2-6.6-0.4-0.4-4.6-1.4-9.2-2.2-10.6-1.9-13.4-3.8-13.8-9.5-0.3-3.9 0.1-4.7 3.8-8.2 2.5-2.4 4-4.6 3.6-5.4-0.7-1.8-3.5-1.8-10.4 0.1zm142.8 41.5c-1.9 0.4-5.1 0.9-7 1-4.1 0.3-6 1.5-6 3.8 0 3.2 24.7 7 26.5 4.1 0.3-0.6 1.7-1 3.1-1 3.2 0 5.5-4.4 3.3-6.4-1.7-1.7-14.8-2.7-19.9-1.5zm155 0.5c-4.1-0.8-6 1-6 5.7 0 5.6 0.7 6.4 6 7 2.5 0.3 6.8 1 9.5 1.6 2.8 0.5 6.4 1 8 0.9 1.7 0 6.6 0.5 11 1.2 4.6 0.7 10.5 0.9 14 0.5 3.3-0.4 8.5-0.7 11.5-0.6 3 0.1 7.1 0.1 9 0.2 4.4 0 8-0.9 8-2.1 0-1.9-14.8-7.3-23.5-8.5-2.2-0.4-9.6-1.5-16.5-2.5-6.9-1.1-16.1-2.2-20.5-2.5-4.4-0.2-9.1-0.7-10.5-0.9zm-102.5 1c-2.6-0.3-11.5 2-12.8 3.3-0.6 0.6-1 2.7-0.9 4.7 0.3 7.2-5.8 14.8-13.8 17.2-1.9 0.6-6.2 1.6-9.5 2.2-7.7 1.5-11.5 3.8-11.5 6.7 0 2.6 6.3 9.3 8.7 9.3 0.9 0 4.4 1.5 7.7 3.3 7.4 4 15.7 6.4 30.2 8.7 9.9 1.6 13.7 2.6 18.7 4.8 4.3 1.9 4.8 2.4 4.2 4.4-1.3 4-2.4 4.7-7.1 4.3-5.2-0.4-5.6 0.7-1.7 4.7 2 2.1 2.7 4.1 3.1 8.1 0.4 4.9 0.2 5.6-2.6 8.3-3.3 3.3-4.9 4-25.2 10.7-7.4 2.4-14.8 4.9-16.5 5.5-1.6 0.6-5 1.5-7.5 2.2-2.5 0.6-6.2 1.5-8.2 2-2.1 0.6-6.1 2.1-8.9 3.4l-5.1 2.3 4.1 0.6c5 0.6 10 0.3 21.5-1.2 4.8-0.7 11.6-1.1 14.9-0.8 3.4 0.2 6.8 0.1 7.7-0.3 0.8-0.5 6.7-1.5 13-2.4 21.8-2.9 24.2-3.8 28.6-10.7 1.5-2.5 3.9-4.6 6.2-5.6 9.7-4 17.2-11.1 17.2-16.1 0-1.2 0.5-2.4 1-2.7 1.3-0.8 7.9 3.2 8.2 4.8 0.7 5.5 0.4 7.8-1.5 12-1.8 4.1-1.9 5-0.7 5.7 3.4 2.2 15.2-2.4 20.3-7.8 2.9-3 5-11.2 3-11.2-0.5 0-1.8-1.6-2.9-3.6-1.4-2.6-5.3-5.8-14.4-11.8-6.9-4.6-15.1-9.6-18.2-11.2-3.2-1.5-5.8-3.2-5.8-3.6 0-0.4-1.1-0.8-2.5-0.8-4.1 0-14.1-4.4-14.9-6.6-1.9-4.9 1.4-7.4 9.8-7.4 2.3 0 5.9-0.7 8.1-1.5 2.2-0.8 6.3-1.4 9-1.5 2.8 0 6.7-0.5 8.8-1.1l3.7-1-0.5-7.2c-0.6-7.6-0.8-7.1 4.9-15.2 2.4-3.3 1.2-4.4-5.4-4.7-4.7-0.1-7.1-0.1-31 0.3-8.8 0.1-16.1-0.2-18.7-1-2.3-0.6-6.1-1.4-8.5-1.7-2.4-0.3-5.2-0.7-6.3-0.8zm-68.3 39.4c-1.1 0-5.2 4.7-5.2 5.9 0 1.1 6.8 4.1 9.3 4.1 4.8 0 5.1-1.5 0.9-5.9-2.1-2.2-4.4-4.1-5-4.1zm21.8 20.6c-1.9 0.8-5.6 2-8.2 2.5-2.6 0.6-5.2 1.7-5.9 2.5-0.6 0.8-1.9 1.4-2.7 1.4-1.2 0-1.3 0.3-0.4 1.2 1.7 1.7 36.3 1.6 42.5-0.1 2.6-0.8 5-1.7 5.3-2.2 0.7-1.2-3.2-3-11.1-5-8.5-2.3-14.8-2.3-19.5-0.3zm-145.1 7.9c-1.9-0.3-3.8-0.3-4.1 0-0.3 0.4-2.6 0.9-5 1.1-15.4 1.7-35.8 7.3-35.8 9.9 0 1.5 1.1 2.7 6.2 6.8 5.2 4.1 11.4 5.4 19.8 3.9 3.9-0.6 4.6-1.1 5.4-3.9 0.8-2.9 3.7-5.1 5.9-4.5 0.4 0.1 0.7-0.2 0.7-0.7 0-0.7 7.3-1.7 20.3-2.6 3.7-0.2 5.8-2.4 5.1-5.3-0.7-2.4-2.1-2.9-9.9-3.6-2.7-0.3-6.6-0.8-8.6-1.1zm51.6 1.5c-2.1 0-16.5 8.7-16.5 10 0 0.4 1.8 2.4 4 4.4 3.3 3 4.8 3.6 8.3 3.6 4.4 0 13.3-2.5 20.5-5.8l4.3-1.9-4.4-1.7c-2.5-0.9-6.6-3.2-9.3-5.1-2.7-1.9-5.8-3.5-6.9-3.5zm36.3 10.1c-0.2 0.1-1.6 0.4-3.1 0.8l-2.9 0.6 4.1 2.5c2.2 1.4 4.8 4 5.8 5.8 2.2 4 5.1 4.9 11.2 3.4 2.5-0.6 6.4-1.4 8.6-1.8 2.2-0.3 6.9-1.6 10.5-2.8 7.9-2.6 12.3-2.2 12.8 1.2 0.4 2.7-2.1 5.9-5.8 7.5l-2.5 1.1 3 0.4c3.2 0.4 18.3-2 27.6-4.4 3-0.8 6.8-1.4 8.3-1.4 5.5 0 23.6-7.1 23.6-9.3 0-0.4-1.2-1.2-2.7-1.8-3.3-1.3-34.7-0.5-40.8 1-4.5 1.2-13.6 1.4-24 0.7-3.8-0.3-12.2-0.8-18.5-1.1-6.3-0.4-12.3-1.1-13.2-1.6-0.9-0.5-1.8-0.8-2-0.8zm-166.8 7.6c-4.1 1.5-8 3.6-8 4.4 0 0.5 2.2 2 4.8 3.3 3.8 1.9 5.5 2.3 8.8 1.7 2.2-0.4 4.6-1.1 5.2-1.5 1.7-1 1.5-5.2-0.4-7-1.5-1.6-7.3-2-10.4-0.9zm113 11.9c-3 0.7-8.6 1.6-12.5 1.8-10.8 0.8-31.4 3.9-31 4.7 0.7 1.1 9.4 2.6 19.1 3.3 2.2 0.2 5.1 0.9 6.3 1.5 4.2 2.3 48.8 0.1 49.4-2.4 0.1-0.5-0.7-1.1-1.8-1.3-3-0.5-6.6-2.3-10.8-5.6-4.4-3.5-10.2-4.1-18.7-2z"/>
		<path id="Layer" class="s0" d="m250 1066.9c0 0.4-1.6 0.5-3.6 0.3-2-0.3-3.4-0.1-3.1 0.4 0.3 0.5-1.5 1-3.9 1-2.4 0.1-5 0.6-5.6 1.1-0.7 0.6-2.6 0.9-4.3 0.8-1.6-0.2-3.5 0.2-4.2 0.7-0.7 0.5-1.4 0.5-1.7-0.1-0.4-0.5-1.5-0.8-2.5-0.6-3.4 0.6-13.7 0.8-14.7 0.3-1.9-1.2-19.2-2-19.8-0.9-0.4 0.5-1.4 0.7-2.3 0.4-1-0.4-1.4-0.2-0.9 0.5 0.3 0.6-0.4 1.4-1.6 1.8-2.9 1.1-9.8 1.1-9.1 0.1 0.8-1.3-8.4-0.7-9.6 0.6-0.6 0.8-0.9 1.6-0.6 1.9 0.3 0.2-0.9 0.3-2.5 0-1.7-0.2-3 0-3 0.5 0 0.6-1.1 0.8-2.4 0.6-3.3-0.7-5.2 2.4-5.5 8.7-0.2 4.8 0.1 5.4 3.4 8.6 2 1.9 4 3.2 4.5 2.9 0.5-0.3 1-0.1 1.2 0.4 0.1 0.6 1.9 1.2 3.8 1.4 2 0.2 4 0.6 4.5 0.9 0.6 0.3 6.4 0.6 13 0.6 6.6 0 12.7 0.3 13.5 0.5 3.2 1.1 9 1.3 9 0.2 0-0.5 0.5-0.3 1 0.5 0.9 1.3 1 1.3 1 0 0-1.2 0.2-1.2 0.8-0.2 0.5 0.7 1.5 1 2.3 0.7 0.9-0.3 2.3 0.3 3.2 1.3 1.4 1.5 1.5 2.1 0.5 3-0.7 0.6-1.6 1.1-2.1 1.1-3.8 0.4-12.5 3.6-12 4.4 0.4 0.6 0 0.8-1 0.4-1.9-0.7-4.9 0.1-4.3 1.2 0.2 0.3-0.8 0.7-2.2 0.8-1.5 0-2.8 0.6-3 1.2-0.2 0.6-0.7 0.9-1.2 0.6-0.5-0.3-1.5 0.1-2.2 0.9-0.8 0.7-2.4 1.7-3.6 2-1.2 0.4-2 1.2-1.7 1.7 0.3 0.5 0 0.6-0.7 0.4-0.8-0.3-2.4 0.8-3.7 2.6-1.3 1.8-1.7 2.8-1 2.4 1.2-0.8 1.2-0.6 0 0.8-0.7 0.9-1.7 1.4-2.2 1.1-0.5-0.3-0.5 0.5 0 1.8 0.4 1.3 0.7 3.3 0.5 4.4-0.4 2.4 1.7 4.6 4.8 5.1 2.2 0.3 14.8-6.5 14.8-8 0-0.4 0.4-0.6 0.9-0.2 0.5 0.3 1.6-0.1 2.4-0.9 1.1-1.1 1.7-1.2 2.6-0.3 0.8 0.8 1.4 0.8 1.9 0.2 0.4-0.6 1.3-1 2-1.1 2.9-0.2 3.3-0.5 2.6-1.6-0.4-0.6-0.3-0.8 0.3-0.5 1.3 0.8 8.3-1.4 8.3-2.5 0-0.5 0.5-0.6 1-0.3 0.6 0.3 1 0.3 1-0.2 0-0.4 1.9-0.8 4.3-0.9 4.7 0 7.6-0.6 9.5-1.7 0.7-0.5 1.2-0.4 1.2 0.2 0 0.6 0.5 1.1 1.1 1.1 0.5 0 0.8-0.4 0.5-0.8-0.3-0.5 0.8-0.6 2.5-0.4 1.6 0.2 2.9 0 2.9-0.5 0-0.6 1.1-0.8 2.5-0.5 1.4 0.2 2.5 0 2.5-0.5 0-0.5 0.6-1 1.3-1 8.7-0.6 15.5-3.2 14.2-5.4-0.4-0.5-0.1-0.8 0.7-0.7 0.8 0.2 1.3-0.6 1.2-2-0.1-1.2 0.3-2.2 0.7-2.2 0.5 0 0.7-1.2 0.5-2.6-0.6-3.4 0.2-5.4 2-4.7 0.8 0.3 2 0.1 2.7-0.4 0.6-0.4 4-0.8 7.5-0.8 3.4 0.1 6.2-0.2 6.2-0.5 0-0.3 10.9-0.5 24.2-0.5 16.3-0.1 24.3-0.4 24.5-1.1 0.2-0.6 1.5-0.9 2.8-0.6 1.4 0.2 3.2-0.1 4-0.8 0.8-0.6 1.9-0.9 2.4-0.6 0.5 0.4 1.2 0.2 1.6-0.3 0.3-0.6 1.2-0.8 1.9-0.5 0.7 0.3 1.6-0.2 1.9-1 0.4-0.9 1.2-1.3 2-1 3 1.1 5.7-5.8 3.2-8.3-0.8-0.8-1.5-1.1-1.5-0.6 0 0.4-0.5 0-1.1-1-0.5-0.9-2.2-1.7-3.7-1.7-1.5-0.1-3.8-0.7-5.1-1.4-1.4-0.8-3.1-1.1-3.9-0.9-0.8 0.3-1.5-0.3-1.9-1.5-0.4-1.5-1.2-2-3.1-1.8-1.5 0.1-3.3-0.4-4-1.1-0.8-0.8-3.9-1.3-7.6-1.3-4.9 0-6.9 0.5-9 2.1-1.5 1.2-2.5 2.7-2.2 3.4 0.8 2.2-7.1 1-8.9-1.3-0.6-0.7-2.3-1.4-3.9-1.6-1.5-0.2-3.2-0.9-3.6-1.6-0.4-0.7-1.7-1-2.9-0.7-1.2 0.3-2.3 0.1-2.6-0.3-0.3-0.5-1.3-0.8-2.3-0.8-0.9 0.1-3.5-0.4-5.7-1-2.2-0.6-4.4-1.1-4.8-1.1-0.4 0-2-0.7-3.4-1.6-1.4-0.9-3.4-1.5-4.4-1.2-1 0.3-1.9 0.2-1.9-0.2 0-0.4-1.8-0.7-4-0.8-2.2-0.1-4 0.1-4 0.6z"/>
		<path id="Layer" class="s0" d="m368.3 1076.5c-1.9 1.9-3.2 3.9-2.8 4.5 0.3 0.5 0.3 1-0.2 1-0.4 0-2.1 1.2-3.8 2.6-1.6 1.4-2.4 2.2-1.6 1.8 0.9-0.5 1.2-0.3 0.7 0.4-0.4 0.7-1.4 1.2-2.2 1.2-0.9 0-1.4 1-1.4 2.7 0 2.2 0.2 2.5 1 1.3 0.5-0.8 1-1 1-0.4 0 0.7 1.8 1 4.8 0.8 2.6-0.1 4.7-0.3 4.7-0.3 0-0.1 2.7-0.3 6-0.5 7.8-0.4 17.2-2.6 18.6-4.2 2.5-3 1.2-9.1-1.7-8-1 0.4-1.2 0.2-0.8-0.6 0.5-0.7 0.2-0.9-0.8-0.5-1 0.3-2.5-0.4-3.9-1.9-1.3-1.4-2.9-2.2-3.6-2-0.7 0.3-1.3 0.1-1.3-0.4 0-0.6-2.1-1-4.6-1-3.9 0-5.1 0.5-8.1 3.5z"/>
		<path id="Layer" class="s0" d="m346.4 1116.9c0.3 0.4-0.6 0.6-1.9 0.3-1.4-0.2-2.5 0-2.5 0.5 0 0.5-1.2 0.8-2.7 0.8-1.6-0.1-3.2 0.1-3.8 0.4-0.5 0.2-2.3 0.6-4 0.8-1.6 0.2-3.7 0.6-4.5 1-0.8 0.3-1.8 0.7-2.2 0.7-0.3 0.1-0.9 0.4-1.3 0.8-0.4 0.4-1.3 0.4-2 0.2-0.7-0.3-1.6-0.1-1.9 0.4-0.3 0.6-1.4 0.8-2.5 0.5-2.4-0.6-7.4 4-6.9 6.4 0.3 1.4 1.4 1.8 5.1 1.9 2.6 0.1 4.9-0.2 5.2-0.6 0.3-0.5 1.4-0.6 2.5-0.3 1.1 0.3 2 0 2-0.6 0-0.5 0.6-0.8 1.4-0.5 0.8 0.3 1.7 0.1 2.1-0.5 0.4-0.8 1.2-0.8 2.6-0.1 1 0.6 1.9 0.7 1.9 0.3 0-0.4 3.8-0.6 8.5-0.5 5.2 0.2 8.5 0 8.5-0.6 0-0.6 0.8-0.8 1.8-0.5 1 0.2 2.5-0.3 3.3-1.3 1.2-1.6 1.2-1.7-0.1-0.9-1.3 0.8-1.3 0.6-0.2-0.8 1.4-1.7 0.8-5.7-0.9-5.7-0.6 0-0.7-0.5-0.4-1 0.4-0.7-0.3-0.9-1.9-0.6-1.4 0.3-2.6 0-2.6-0.5 0-0.5-0.7-0.9-1.6-0.9-0.8 0-1.3 0.4-1 0.9z"/>
		<path id="Layer" class="s0" d="m289 1128.9c0 0.4-1.2 0.7-2.8 0.5-3.8-0.4-5.3 0.8-5.5 4.6-0.2 2.7 0.2 3.3 2.1 3.6 1.3 0.2 2.1 0 1.8-0.5-0.3-0.5 0.2-0.7 1.3-0.4 1 0.3 2.2 0 2.5-0.5 0.3-0.6 1.4-0.8 2.4-0.5 2.2 0.5 5.7-4 4.8-6.3-0.6-1.5-6.6-2-6.6-0.5z"/>
		<path id="Layer" class="s0" d="m427 1186.7c0 0.5-4.1 0.6-9 0.5-5-0.2-9.8-0.1-10.8 0.3-1.3 0.5-11.3 1.3-23.4 1.8-1 0.1-1.8 0.4-1.8 0.7 0 0.3-3.2 0.5-7 0.4-3.9-0.1-7.3 0.2-7.5 0.6-0.3 0.4-3 0.6-6 0.4-3.1-0.2-5.4 0-5.1 0.4 0.3 0.5-1.7 0.8-4.4 0.6-2.8-0.1-5 0-5 0.4 0 0.4-3.5 0.7-7.8 0.6-8.1 0-10.5 0.3-9.7 1.5 0.2 0.4-0.1 0.8-0.8 0.9-1 0.1-6 0.8-10.7 1.6-0.9 0.1-2.1 0.5-2.8 1-0.6 0.4-1.6 0.5-2.1 0.1-0.5-0.3-1.2-0.1-1.5 0.3-0.3 0.5-1.7 0.7-3.1 0.4-1.4-0.2-3.1 0.1-3.9 0.7-0.8 0.7-3.9 1.4-7 1.6-3 0.2-6.5 0.9-7.6 1.5-1.2 0.6-3.4 1.2-5.1 1.2-1.6 0.1-2.9 0.4-2.9 0.8 0 0.4-0.6 0.7-1.2 0.7-6.2 0.4-22.7 4.1-24.6 5.7-0.8 0.5-2.7 0.9-4.4 0.8-1.6-0.1-2.7 0.2-2.4 0.7 0.3 0.5 0 0.9-0.7 0.8-3.4-0.1-4.8 0.4-4.1 1.5 0.4 0.7 0.3 0.8-0.5 0.4-0.6-0.4-1.9-0.2-2.8 0.6-1.4 1.1-1.6 1.1-0.9 0 0.7-1.2 0.4-1.2-1.5-0.2-1.3 0.7-3.2 2-4.3 2.9-1 0.9-2 1.5-2.2 1.3-1.1-0.6-2.4-0.1-1.9 0.8 0.3 0.5 0 0.7-0.8 0.4-0.8-0.3-1.7 0.2-2.1 1.1-0.3 0.9-1 1.4-1.5 1-2.4-1.4-18.3 12.7-17.3 15.3 0.3 1 0.1 1.3-0.6 0.8-1.3-0.8-3.6 3-2.8 4.9 0.3 0.8 0.1 1.5-0.4 1.7-1.2 0.4-2.1 12.8-0.9 12.8 0.6 0 0.7 0.5 0.4 1.1-0.4 0.5 0 1.8 0.8 2.7 1.5 1.7 1.7 2.1 1.7 4.3 0 0.5 0.5 0.7 1.2 0.3 0.7-0.4 0.8-0.3 0.4 0.4-0.8 1.4 4.8 7.2 7 7.2 0.8 0 1.3 0.4 1 0.8-0.8 1.3 5.2 5.4 6.6 4.6 0.6-0.4 0.8-0.3 0.4 0.4-0.7 1.2 4.2 5 7 5.5 1.1 0.1 2.5 0.6 3.2 1 0.6 0.5 1.7 0.5 2.4 0.1q1.1-0.7 0.3 0.6c-0.6 1-0.3 1.2 1.3 0.8 1.2-0.4 2.2-0.2 2.2 0.2 0 0.9 5.5 2.5 8.2 2.3 1 0 1.6 0.3 1.3 0.7-0.4 0.7 9.6 3.3 11.1 2.8 0.5-0.1 1.9 0.3 3.2 1 1.2 0.7 2.7 1 3.3 0.7 0.5-0.4 1.6-0.1 2.4 0.5 0.8 0.7 1.5 1 1.5 0.7 0-0.3 1.6 0.1 3.5 0.8 1.8 0.8 4.4 1.5 5.7 1.5 4.9 0.1 8.4 0.7 10.6 1.9 1.2 0.7 3.1 0.9 4.2 0.6 1-0.3 2.1-0.1 2.4 0.4 0.4 0.6 1.4 0.7 2.3 0.4 1.2-0.5 1.4-0.3 0.8 0.7-0.6 1-0.3 1.2 1.3 0.8 1.2-0.4 2.2-0.3 2.2 0.2 0 0.4 4.8 1.1 10.8 1.5 5.9 0.4 11.5 1.2 12.6 1.7 1.4 0.8 1.7 0.7 1-0.4-0.6-1-0.5-1.1 0.7-0.1 2.1 1.7 7.9 2.6 7.9 1.2 0-0.8 0.4-0.8 1.5 0.1 1.2 1 1.8 1 3.2-0.1 1.4-1.2 1.5-1.2 0.9-0.1-0.7 1.2-0.4 1.2 1.3 0.2 1.4-0.7 2.1-1.9 1.9-3.1-0.2-1.1-0.6-1.8-0.9-1.7-0.4 0.2-1.5-0.4-2.5-1.3-1.1-0.8-2.9-1.4-4.1-1.3-1.3 0-2.3-0.3-2.3-0.8 0-0.5-1.5-0.8-3.3-0.7-1.8 0.2-3.7 0-4.2-0.3-0.6-0.3-2.9-0.5-5.3-0.5-2.3 0.1-4.3-0.1-4.5-0.4-0.1-0.4-2.1-0.9-4.4-1.2-2.4-0.2-5-1-5.8-1.7-0.8-0.7-2.4-1-3.5-0.7-1.1 0.3-2.3 0.1-2.6-0.4-0.3-0.5-1.6-0.7-2.9-0.5-1.4 0.3-2.7 0.1-2.9-0.3-0.3-0.4-1.7-0.7-3.3-0.6-1.5 0-3.1-0.4-3.5-0.9-0.3-0.5-1.4-1-2.5-1.1-1-0.1-2.5-0.5-3.4-0.9-0.9-0.4-2.7-0.8-4.1-1-1.3-0.1-2.8-0.5-3.4-0.9-0.6-0.3-1.9-0.4-3-0.3-1 0.2-2.4-0.1-3.1-0.6-0.7-0.5-1.8-0.6-2.4-0.2-0.7 0.4-0.9 0.3-0.5-0.4 0.6-1-2.7-2.1-8-2.7-1.1-0.2-2.9-0.7-4-1.3-5-2.7-9.5-4.2-10.6-3.6-0.7 0.4-0.8 0.3-0.4-0.4 0.4-0.7 0.2-1.3-0.3-1.3-0.6-0.1-1.5-0.2-2-0.3-0.5 0-1.3-0.5-1.8-1-0.5-0.5-0.3-0.6 0.5-0.2 0.6 0.4 1.2 0.5 1.2 0.2 0-0.7-6.3-4.1-7.2-3.8-0.4 0.1-1.6-0.9-2.6-2.3-1.1-1.3-2.2-2.1-2.6-1.8-0.6 0.7-0.9-1.3-1-8.4-0.1-2.4 0.2-4.3 0.7-4.3 0.4 0 0.7-0.8 0.7-1.8 0-1 0.9-2.8 2-4 1.2-1.2 1.9-2.2 1.6-2.2-0.3 0 0.6-1.2 1.9-2.6 1.4-1.5 2.2-3.1 1.8-3.7-0.3-0.5-0.1-0.7 0.5-0.4 0.5 0.4 2.1-0.5 3.4-2 1.3-1.6 3.5-3.4 5-4.2 1.5-0.8 2.5-1.9 2.1-2.4-0.3-0.6-0.2-0.7 0.4-0.4 1.3 0.8 8.4-2.8 7.5-3.8-0.4-0.5-0.1-0.5 0.7 0 0.8 0.4 1.6 0.2 2.1-0.5 0.5-0.7 2.1-1.4 3.6-1.6 1.6-0.2 3-0.7 3.2-1.3 0.2-0.5 1.1-0.7 2.1-0.4 0.9 0.2 2.3-0.2 3-1.1 0.7-0.8 2-1.2 2.8-0.9 1.2 0.5 1.4 0.3 0.8-0.8-0.6-1.1-0.5-1.1 0.4-0.3 1.4 1.3 8.1-0.2 8.1-1.8 0-0.5 0.6-0.8 1.3-0.6 2.2 0.4 10.7-1.3 10.2-2.1-0.2-0.5 0.7-0.6 2-0.3 1.4 0.2 2.5 0 2.5-0.5 0-0.6 1.1-0.8 2.5-0.5 1.4 0.2 2.5 0 2.5-0.5 0-0.5 1.7-0.9 3.8-0.8 2 0 4.1-0.1 4.6-0.4 0.6-0.2 3.6-0.5 6.8-0.6 3.1-0.1 6.3-0.7 7-1.2 0.7-0.6 2.5-0.8 4.1-0.6 1.5 0.2 2.7 0 2.7-0.4 0-0.4 4.6-0.9 10.3-1.1 5.6-0.2 10.3-0.6 10.4-1 0.2-0.4 2.8-0.5 5.8-0.4 3 0.2 5.5 0 5.5-0.5 0-0.4 2.7-0.7 6-0.6 3.2 0.1 6.2-0.2 6.4-0.6 0.3-0.5 2-0.7 3.7-0.5 1.8 0.2 3.7 0 4.3-0.5 0.6-0.5 2-0.7 3-0.5 1.1 0.1 2.5 0 3-0.4 0.6-0.4 1.8-0.7 2.6-0.7 0.8 0 2-0.4 2.7-0.8 0.6-0.4 1.5-0.3 1.8 0.3 0.4 0.6 1.4 0.8 2.3 0.6 2.8-0.9 17.6-1.6 41.7-2 14.1-0.2 23-0.7 23.2-1.3 0.2-0.6 1.9-0.9 3.7-0.6 2.3 0.2 3.8-0.2 4.7-1.4 1.2-1.5 1.2-1.6-0.1-0.9-0.8 0.4-0.6 0 0.4-0.8 1.1-0.9 1.4-1.6 0.7-1.6-0.7 0-1-0.4-0.7-0.9 1-1.6-6.2-4.2-10.4-3.8-2.3 0.2-4.1-0.1-4.4-0.7-0.3-0.7-0.7-0.8-1.3-0.1-1 1.2-4.3 1.6-4.3 0.5 0-0.5-0.8-0.9-1.7-0.9-4.4-0.1-10-0.8-10.9-1.3-0.5-0.3-3.3-0.5-6.1-0.4-3.4 0.1-5.4-0.3-5.8-1.1-0.5-1.4-2.5-1.8-2.5-0.6z"/>
		<path id="Layer" fill-rule="evenodd" class="s0" d="m196 1196.9c0 0.5 0.7 0.8 1.6 0.7 1.1-0.1 1.8 0.9 2.1 2.7 0.2 1.8 0 2.6-0.7 2.2-0.5-0.3-1-0.1-1 0.4 0 0.6-0.8 1.1-1.9 1.1-1 0-2.4 0.7-3.2 1.6-0.7 0.9-2.2 1.4-3.6 1.1-1.3-0.2-2.1-0.2-1.8 0.1 0.9 0.9-3.4 3.4-4.7 2.6-0.6-0.4-0.8-0.3-0.5 0.3 0.9 1.4-1.9 3.7-3.4 2.7-0.7-0.4-0.9-0.3-0.5 0.4 0.7 1.1-2.3 2.5-4.5 2-0.7-0.2-1.3 0.3-1.4 0.9 0 0.7-1.1 2-2.5 2.9-1.4 1-3.7 2.8-5.2 4.2-1.6 1.4-3.1 2.1-3.9 1.7-0.7-0.5-1-0.4-0.6 0.2 0.9 1.4-2.9 4.7-4.4 3.7-0.8-0.4-1-0.3-0.5 0.4 0.8 1.3-8.4 8.3-9.8 7.5-0.5-0.4-0.6-0.1-0.3 0.5 0.9 1.4-4.8 6.1-7 5.8-1.2-0.2-1.9-1.3-2.1-3.7-0.5-4.3 1.7-14.1 2.9-13.4 0.5 0.3 0.7 0 0.4-0.7-0.3-0.7 0.5-2.4 1.6-3.8 1.1-1.4 1.7-1.9 1.3-1.1-0.5 0.9-0.3 1.2 0.5 0.7 0.6-0.4 0.9-1.1 0.6-1.5-0.6-1.1 2.9-5.1 4.4-5.1 0.7 0 1-0.4 0.7-0.9-0.9-1.3 6.4-7.3 8.1-6.7 0.9 0.4 1.1 0.2 0.7-0.6-0.5-0.7-0.2-0.9 0.9-0.5 0.8 0.3 2.1-0.1 2.8-0.9 0.7-0.8 1.8-1.3 2.5-1 0.7 0.3 1.8-0.2 2.5-1 0.7-0.9 2.3-1.4 3.6-1.1 1.2 0.2 2 0 1.7-0.4-0.6-1 2.3-1.8 8.1-2.3 2.2-0.3 4-0.5 4-0.6 0-0.1 2.2-0.3 4.8-0.5 2.6-0.1 5-0.5 5.4-0.9 0.9-0.9 2.3-0.7 2.3 0.3zm-44.1 12.8c-1.3 1.6-1.2 1.7 0.4 0.4 0.9-0.7 1.7-1.5 1.7-1.7 0-0.8-0.8-0.3-2.1 1.3z"/>
		<path id="Layer" class="s0" d="m1550.6 1224.9c-0.4 0.6-1.4 0.7-2.3 0.4-1-0.4-1.4-0.2-1 0.4 0.4 0.6-0.3 0.8-2 0.5-1.8-0.3-2.4-0.1-1.9 0.6 0.4 0.8 0.2 1-0.7 0.6-0.8-0.3-2.1 0.1-2.8 0.8-0.8 0.7-2.5 1.3-3.9 1.2-1.4-0.1-3.6 0.3-5 0.8-1.4 0.6-5 1.2-8 1.4-3 0.3-7.1 0.9-9 1.4-1.9 0.6-4.8 1-6.3 1-1.6 0-2.6 0.4-2.3 0.9 0.3 0.4-0.6 0.6-1.9 0.3-1.4-0.2-2.5 0-2.5 0.5 0 0.5-1.8 0.7-3.9 0.5-2.3-0.2-4.8 0.2-6.2 1.1-1.9 1.1-5.5 1.4-15.9 1.3-7.4-0.1-15.2 0.2-17.2 0.5-2.1 0.3-3.8 0.4-3.8 0 0-0.3-2.7-0.6-6-0.6-3.3 0-6 0.2-6 0.5 0 0.3-0.9 0.6-2 0.6-1.1 0-2-0.3-2-0.6 0-1-24.5 0-28.5 1.2-4.9 1.4-5.2 1.5-6.6 1.7-0.5 0-0.8 0.5-0.5 1 0.3 0.5-0.2 0.8-1.2 0.7-1 0-1.6 0.5-1.4 1.4 0.2 0.8 0 1.2-0.3 0.8-1.2-1.2-4.7 1.2-4.1 2.8 0.3 0.7 0 1.3-0.6 1.1-0.5-0.1-1.2 0.6-1.3 1.5-0.4 2 2.3 6 3.5 5.3 0.4-0.3 1 0 1.2 0.6 0.2 0.5 2.2 1.2 4.5 1.3 2.2 0.2 4.5 0.6 4.9 0.9 0.5 0.3 6.6 0.5 13.5 0.4 6.9 0 13 0.2 13.5 0.5 1.3 0.8 14.1 1.4 14.8 0.7 0.3-0.3 2.9-0.2 5.8 0.1 2.9 0.4 6.4 0.6 7.8 0.3 2.8-0.4 2.2-0.4 11.6 0 3.8 0.2 7.5 0.7 8.1 1 1.5 1 7.3 0.5 7.3-0.5 0-0.4 0.5-0.8 1.1-0.8 0.5 0 0.7 0.5 0.3 1.2-0.5 0.8 0 0.9 1.4 0.6 1.2-0.4 2.4-0.3 2.7 0.1 0.2 0.4 1.8 0.7 3.4 0.6 1.7-0.1 2.8 0.2 2.5 0.7-0.3 0.4-0.1 0.8 0.5 0.8 0.5 0 1.3-0.5 1.6-1 0.5-0.8 1.1-0.8 1.9-0.1 0.7 0.6 1.6 0.8 1.9 0.5 0.3-0.3 1.2-0.2 1.9 0.2 0.7 0.5 1.8 0.9 2.3 1.1 0.6 0.1 2.1 0.4 3.5 0.7 1.4 0.3 4.1 0.9 6 1.2 1.9 0.3 5 1 6.8 1.6 3.2 1 3.3 1.1 1.6 2.9-0.9 1-2.3 1.9-3.1 1.9-0.8 0-2.4 0.5-3.6 1.2-2.1 1.2-2.6 1.3-5.5 1.6-0.7 0.1-1.1 0.6-0.8 1.1 0.3 0.5-0.2 0.8-1.2 0.7-0.9 0-1.6 0.4-1.5 1 0.1 0.7-1.6 1-4.5 0.8-2.6-0.1-5.1 0-5.5 0.3-0.5 0.3-5.6 0.5-11.4 0.6-6.1 0-11 0.5-11.6 1.1-0.8 0.7-6.4 1.1-14.9 1.1-7.6 0-13.8 0.4-13.8 0.9 0 0.5-0.6 0.3-1.3-0.3-1.6-1.3-25.6-0.7-26.6 0.6-0.7 1-0.7 1-12.6-0.2-4.9-0.5-9.4-0.7-10-0.5-0.5 0.1-2 0.2-3.2 0.2-1.2-0.1-2.5 0.3-2.8 0.9-0.5 0.7-1.1 0.6-2.1-0.2-1.1-0.9-1.8-0.8-3.1 0.2-1.4 1.2-1.5 1.2-0.9 0.1 0.7-1.2 0.4-1.2-1.5-0.1-1.3 0.7-4.5 1.3-7.1 1.3-2.5 0.1-4.9 0.4-5.3 0.8-0.4 0.4-1.3 0.4-2.1 0.1-0.8-0.3-2.2-0.2-3.1 0.2-1 0.5-2.9 0.9-4.3 1.1-1.4 0.2-4.1 0.5-6 0.8-1.9 0.3-7.1 0.8-11.5 1.2-7.5 0.6-10.9 1-12.8 1.3-0.5 0-0.5 0.5-0.2 1.1 0.4 0.6-0.1 0.7-1.1 0.3-1-0.3-1.5-0.2-1.2 0.3 0.4 0.5-1 0.9-3 1-3.4 0.1-10.7 1.1-10.7 1.4 0 0.5-5.7 1-10.2 1-3.1-0.1-5.3 0.3-5.3 0.9 0 0.6-0.3 1-0.7 1-0.5-0.1-1.2 0-1.8 0.1-0.5 0.1-3.6 0.1-6.7 0-3.2-0.1-5.8 0.3-5.8 0.8 0 0.5-1.1 0.7-2.5 0.4-1.3-0.2-3.3-0.1-4.2 0.3-1 0.5-2.4 0.7-3.2 0.6-1.6-0.3-7.1 1.9-7.1 2.8 0 0.4-1 0.7-2.1 0.8-3.5 0.3-6 3.2-5.2 6.2 0.8 3.7 2.4 5.3 4.5 4.8 1-0.3 2.1 0 2.5 0.5 0.4 0.7 0.1 0.8-0.7 0.3-0.8-0.5-1.1-0.4-0.7 0.2 0.7 1.2 5.5 2.4 10.4 2.6 1.7 0.1 2.9 0.6 2.6 1-0.3 0.5 1.4 0.6 3.6 0.4 2.3-0.2 4.1 0 4.1 0.4 0 0.5 1.1 1.1 2.5 1.5 2.8 0.7 3.3 2.2 1 3-0.8 0.4-1.2 1-0.9 1.5 0.6 1-0.5 1.2-4.9 1.1-1.7 0-2.5 0.3-2.1 1 0.4 0.7 0.2 0.8-0.4 0.4-1.4-0.8-14.2 1.3-15.9 2.6-0.7 0.6-1.3 0.7-1.3 0.3 0-0.4-0.6-0.2-1.4 0.4-1 0.9-1.6 0.9-2.1 0.1-0.4-0.7-2-0.8-4.3-0.4-2.1 0.4-6 0.7-8.9 0.6-3.9-0.2-5.4 0.2-6.1 1.4-0.5 0.9-1.2 1.4-1.7 1.2-0.4-0.1-1.7 1-2.9 2.5-2.4 3.2-1.4 6 2.4 6.5 1.2 0.2 2 0 1.7-0.5-0.4-0.6 0-1 0.8-1 0.8 0 1.2 0.4 0.9 0.9-0.3 0.5 1.3 0.7 3.5 0.5 2.3-0.2 4.4-0.1 4.7 0.4 0.2 0.4 1.2 0.8 2.2 0.7 0.9 0 5.1 0.3 9.2 0.7 8.7 0.7 7.1 0.7 18 0.1 15.8-1 22.5-1.8 23.7-2.7 0.7-0.7 1.3-0.6 1.7 0 0.4 0.6 1.5 0.7 2.9 0.1 4.8-1.9 6.4-2.2 10.4-2.4 2.3 0 4.4-0.4 4.8-0.8 0.4-0.4 1.2-0.4 1.9-0.2 0.7 0.3 2.6 0 4.2-0.6 1.6-0.7 4.7-1.3 6.8-1.6 2.2-0.2 4.2-0.7 4.5-1.2 0.3-0.4 1.3-0.7 2.1-0.7 0.8 0.1 2-0.2 2.6-0.7 0.6-0.4 2.4-1 4-1.1 5.6-0.7 20.3-5 19.8-5.8-0.3-0.5 0.2-0.6 1-0.3 0.9 0.3 1.6 0.1 1.6-0.5 0-0.6 0.7-0.8 1.5-0.5 1.7 0.7 11.5-2.6 11.5-3.9 0-0.4 0.5-0.5 1-0.2 0.6 0.3 1 0.1 1-0.5 0-0.6 0.4-0.9 0.9-0.6 0.5 0.3 1.2-0.1 1.5-0.9 0.3-0.8 0.9-1.4 1.3-1.3 1.5 0.3 5.9-2 7.3-3.8 1.4-1.8 1.4-1.8-0.5-0.4-1.5 1.1-1.4 0.8 0.4-1.2 1.3-1.5 2.1-3.4 1.8-4.2-0.4-0.9-0.2-1.8 0.4-2.1 0.5-0.4 0.7-1 0.4-1.5-0.3-0.4 0.1-0.7 0.8-0.7 0.6 0.1 3.2-0.2 5.7-0.6 7.5-1.2 15-1.4 15-0.5 0 1 14.9 0.8 15.5-0.2 0.2-0.3 2.7-0.4 5.5 0 2.7 0.4 5 0.4 5 0.1 0-0.3 6.6-0.6 14.8-0.6 8.1 0 17-0.4 19.7-0.9 2.8-0.4 5.7-0.8 6.5-0.8 0.8 0 2.2-0.2 3-0.5 0.8-0.3 2.9-0.7 4.5-0.8 1.7-0.2 3-0.4 3-0.5 0-0.4 5.1-1 7.8-1 1.5 0 2.7-0.4 2.7-1 0-0.5 0.7-0.7 1.5-0.4 2.5 1 8.7-0.5 7.9-1.9-0.4-0.7-0.4-0.9 0.1-0.5 0.4 0.4 1.5 0.2 2.3-0.5 1.3-1 1.4-0.9 0.8 0.2-0.6 0.9-0.1 0.8 1.6-0.3 1.4-0.9 2.7-1.3 3.1-1 0.3 0.3 1.2 0.2 1.9-0.2 0.7-0.5 2.6-0.9 4.3-1.1 1.6-0.1 3.1-0.7 3.3-1.2 0.2-0.6 0.8-0.9 1.3-0.5 0.5 0.3 0.9 0 0.9-0.5 0-0.6 0.3-1 0.8-0.9 1.5 0.5 7.2-2.1 7.2-3.3 0-0.6 0.7-0.9 1.5-0.5 0.8 0.3 1.5 0 1.5-0.6 0-0.6 0.3-0.8 0.7-0.5 0.9 0.9 3.4-1.3 2.7-2.4-0.3-0.5-0.2-0.9 0.3-0.8 2 0.3 3.3-0.2 3.1-1.4-0.2-0.6 0.3-1.1 1-1 0.6 0.2 1.2-0.2 1.2-0.7 0-0.6 0.9-1.9 2-3 1.7-1.7 2.1-3.2 1.9-7.8-0.1-4.8-0.6-6.2-3.2-8.9-1.7-1.8-3.5-2.9-4-2.6-0.6 0.3-0.7 0.1-0.3-0.5 0.3-0.6-0.7-2-2.4-3.2-1.6-1.2-3-1.9-3-1.5 0 0.3-1.6-0.9-3.5-2.6-4.3-3.9-4.4-5.4-0.5-7.4 1.7-0.9 3-1.8 3-2.1 0-0.3-0.5-0.2-1.2 0.2-0.7 0.4-0.8 0.3-0.4-0.5 0.4-0.6 1.1-0.9 1.5-0.7 1.2 0.8 5.2-2.4 4.5-3.6-0.4-0.6-0.3-0.8 0.3-0.5 0.6 0.4 2-0.4 3.3-1.8 1.6-1.7 2.1-3.1 1.6-4.9-0.3-1.4-1-2.5-1.4-2.5-0.4 0.1-0.9 0-1.2-0.1-2.1-0.8-9.9-0.9-10.4-0.1z"/>
		<path id="Layer" class="s0" d="m902 1256.1c-2.5 1.8-4.8 3.6-5.1 4.1-0.3 0.5-0.9 0.9-1.3 0.9-2-0.3-2.6 0-2 1.1 0.4 0.6 0.3 0.8-0.3 0.5-1-0.6-9.7 1.6-8.9 2.3 0.2 0.3-1 0.6-2.7 0.7-1.8 0.2-3.3 0.6-3.5 1.1-0.1 0.5-1.5 0.7-3.1 0.4-1.7-0.2-4 0.3-5.5 1.3-1.5 1-3.7 1.9-4.9 2-3.7 0.4-3.8 0.5-3.1 1.7 0.4 0.6 0.3 0.8-0.4 0.4-0.6-0.3-1.3-0.2-1.7 0.4-0.4 0.6-1.1 0.8-1.6 0.5-1.2-0.8-5.9 4-5.9 6 0 0.9 0.4 1.3 1 1 0.6-0.3 0.7 0.1 0.4 0.9-0.4 1 0.1 1.8 1 2.2 1.2 0.5 1.4 1 0.6 2-0.7 0.7-1.9 1-2.7 0.7-1-0.4-1.4-0.2-1 0.4 0.4 0.6-0.3 0.8-1.8 0.5-1.4-0.2-2.5 0-2.5 0.4 0 0.5-1 1-2.2 1.1-4.9 0.4-12.8 2.4-12.8 3.2 0 0.4-1.2 0.6-2.7 0.5-1.6-0.1-3.3 0.3-4 0.8-0.7 0.5-1.4 0.5-1.8-0.2-0.3-0.5-1.1-1-1.6-1-0.6 0-0.7 0.4-0.4 1 0.3 0.5 0 0.7-0.9 0.4-0.8-0.3-2-0.3-2.6 0.1-0.7 0.4-4.4 0.9-8.3 1.1-4 0.3-7.9 0.7-8.7 1.1-0.8 0.3-2.5 0.5-3.7 0.4-1.3-0.1-2.3 0.1-2.3 0.6 0 0.4-1.7 0.8-3.7 0.8-2.4 0-3.7 0.4-3.6 1.2 0.2 0.7-0.7 1-2.2 0.7-1.3-0.2-2.6 0-3 0.5-0.3 0.6-1.2 0.8-1.9 0.5-0.7-0.3-2 0.1-2.7 0.8-0.8 0.7-2.9 1.3-4.7 1.2-1.8-0.1-3.5 0.4-3.9 0.9-0.4 0.6-0.1 0.7 0.7 0.2 0.8-0.5 1.1-0.4 0.7 0.2-0.4 0.6-1.7 0.8-3 0.6-4.5-0.9-7.9 6.4-4.7 10.2 1.6 1.9 13.6 2.2 12.4 0.3-0.5-0.7-0.3-0.8 0.7-0.2 2.1 1.3 5.1 1.6 4.4 0.4-0.3-0.6 0.1-0.7 0.9-0.4 0.9 0.3 1.6 0.9 1.6 1.3 0 0.4 3.7 0.4 8.2 0 4.5-0.4 8.6-0.5 9-0.3 0.5 0.3 0.8 0.2 0.8-0.3 0-0.4 3-0.7 6.7-0.7 8.2 0.1 13.4-0.6 12.8-1.7-0.3-0.4 0.4-0.6 1.6-0.4 1.2 0.3 2.7 0.1 3.3-0.2 0.6-0.4 3.1-0.8 5.6-0.9 6-0.2 6.2-0.3 5.6-1.3-0.3-0.5 1-0.7 2.9-0.4 2.3 0.3 3.5 0.1 3.5-0.7 0-0.9 0.4-1 1.3-0.2 1.4 1.2 5.7 0.5 5.7-0.9 0-0.5 0.7-0.6 1.5-0.3 0.8 0.4 1.5 0.2 1.5-0.2 0-0.5 1.7-1 3.8-1 6.3-0.2 15.6-1.6 16.7-2.5 0.6-0.4 1.6-0.5 2.3 0 1.9 1.1 8.3 0.1 7.5-1.3-0.4-0.6 0.1-0.5 1 0.3 1.2 0.9 1.7 1 1.7 0.2 0-0.7 0.4-1 0.8-0.7 1.4 0.8 8.3-1.4 7.7-2.4-0.4-0.6 0.1-0.7 1.1-0.3 1.3 0.5 1.5 0.3 0.9-0.7-0.5-0.9-0.4-1.1 0.4-0.6 0.7 0.5 2.5-0.5 4.3-2.3 1.8-1.7 2.8-3.1 2.4-3.1-0.4 0 0-0.7 0.9-1.7 1.6-1.6 1.6-2.6 0.4-12.3-0.1-0.8-0.8-2.5-1.5-3.9-1-2-1.1-2.8-0.1-4 1-1.2 0.9-1.3-0.3-0.7-1.3 0.6-1.3 0.6 0-0.6 3.4-2.9 7.8-11 7.6-13.6-0.4-3.8-3.2-3.8-8.6-0.1z"/>
		<path id="Layer" class="s0" d="m159.3 1274.2c-1.2 2-1.4 4.6-0.3 5.3 0.5 0.3 0.7 1.2 0.4 2-0.3 0.7 0 2.4 0.7 3.7 0.7 1.3 1.3 3.1 1.4 4.1 0 1 0.7 2.4 1.5 3 0.8 0.7 1.6 1.9 1.8 2.7 0.4 1.7 5.8 7 7.2 7 0.5 0 0.9 0.3 0.8 0.7-0.3 1.6 1.5 4.3 2.8 4.3 0.8 0 1.3 0.3 1.2 0.7-0.3 1.4 7.1 8.5 8.2 7.8 0.5-0.3 0.7 0 0.4 0.8-0.3 0.8 0.2 1.7 1.1 2.1 1.1 0.4 1.4 0.2 0.8-0.7-0.4-0.6 0.9 0.4 2.8 2.3 4.3 4.3 5.4 6.8 3.1 6.6-0.9 0-1.6 0.4-1.5 0.9 0.1 0.6-0.6 1.2-1.5 1.3-9.3 1-17.8 2.7-18.4 3.6-0.4 0.6-0.8 0.7-0.8 0.2 0-0.5-0.7-0.3-1.5 0.4-0.8 0.6-1.8 0.9-2.3 0.6-1.4-0.8-12.7 3-12.5 4.2 0.2 0.6-0.4 0.9-1.2 0.6-0.9-0.4-1.5 0-1.6 1-0.1 0.9-0.2 2.2-0.3 2.8-0.1 0.7 0.3 1.9 0.8 2.7 0.8 1.1 0.8 1.3-0.1 0.7-0.9-0.5-1.1-0.2-0.7 0.8 0.3 0.9 1 1.3 1.5 1 0.5-0.3 0.9 0 0.9 0.7 0 0.6 0.8 0.9 2 0.6 1.3-0.3 1.8-0.1 1.3 0.6-0.4 0.6 0 0.8 1 0.4 1-0.4 1.7-0.2 1.7 0.4 0 0.6 0.7 0.9 1.5 0.5 0.8-0.3 1.5 0 1.5 0.5 0 0.7 1.1 0.9 2.5 0.7 1.4-0.3 2.5-0.2 2.5 0.2 0 1.3 15.4 1.8 16.2 0.6 0.5-0.8 0.8-0.7 0.8 0 0 0.7 1.5 1.2 3.5 1.2 2 0 3.5-0.5 3.5-1.2 0-0.8 0.2-0.8 0.8 0 0.4 0.7 6.2 1.4 14 1.8 7.4 0.3 13.8 0.9 14.3 1.2 0.5 0.3 0.9-0.1 0.9-0.8 0-1 0.2-1 0.8-0.1 0.4 0.7 1.6 1.2 2.7 1.2 1.1 0 11.7 0 23.5 0 20 0.1 26.1-0.2 28.2-1.5 0.4-0.3 0.8 0 0.8 0.5 0 0.6 0.5 1.1 1.1 1.1 0.5 0 0.8-0.3 0.6-0.8-0.5-0.7 17.8-0.6 19.9 0.2 0.7 0.3 1.4 0.1 1.6-0.4 0.2-0.5 6.7-1 14.6-1.1 7.8 0 14.4-0.5 14.7-0.9 0.3-0.4 1.4-0.6 2.5-0.3 1.1 0.3 2.8 0.2 3.7-0.2 1-0.4 4.3-0.7 7.4-0.6 3.2 0.2 6-0.2 6.3-0.7 0.3-0.6 1.5-0.8 2.6-0.5 1.1 0.3 2 0.1 2-0.5 0-0.6 0.9-0.8 2-0.5 1.1 0.3 2.6 0 3.3-0.6 0.8-0.6 1.7-0.8 2-0.5 0.3 0.4 1.4 0.3 2.4-0.1 2-0.9 2.6-1 10.3-1.9 7-0.9 18.2-6.4 18.6-9.1 0.6-3.7-1.7-7.3-5.9-9.4-2.2-1.1-4.5-1.7-5-1.4-0.6 0.3-0.7 0.1-0.3-0.5 0.7-1.2-4.8-2.7-6.4-1.7-0.5 0.3-1 0.1-1-0.6 0-0.7-1-0.9-2.5-0.7-1.3 0.3-2.6 0.1-2.7-0.3-0.2-0.5-2.1-1.1-4.3-1.5-2.2-0.3-4.2-1-4.6-1.5-0.3-0.5-1.8-0.5-3.6 0-1.7 0.5-3.5 0.6-3.9 0.1-1.2-1-31.4-2.2-31.4-1.2 0 0.4-0.9 0.8-2 0.8-1.1 0-2-0.3-2-0.7 0-0.4-0.7-1-1.6-1.3-1-0.4-1.3-0.2-0.8 0.7 0.5 0.8 0.2 0.8-0.9-0.2-0.9-0.7-2.3-1.1-3-0.8-0.8 0.3-2 0.1-2.7-0.3-0.8-0.5-1.9-0.6-2.4-0.2-1.5 0.9-4.6 1-4 0.1 0.6-1.1-5.9-2.2-9.6-1.7-1.6 0.3-3.1 0.1-3.2-0.3-0.3-0.6-12.8-2.1-20.5-2.3-1.7-0.1-2.9-0.4-2.6-0.9 0.4-0.6-2.3-1-8.9-1.1-1.5 0-2.4-0.4-2.1-0.9 0.3-0.6-0.7-0.8-2.5-0.5-1.7 0.2-3.3 0-3.5-0.5-0.2-0.6-1.2-1.1-2.3-1.1-1.1-0.1-2.4-0.5-2.9-0.8-1.8-1.1-12.7-2.8-13.8-2.1-0.5 0.3-0.7 0.1-0.4-0.4 0.8-1.2-2-2.6-3.4-1.7-0.5 0.3-0.9 0-0.9-0.7 0-0.7-1-0.9-2.5-0.7-1.3 0.3-2.2 0.1-1.9-0.3 0.5-0.8-0.3-1.1-2.2-0.8-0.4 0-1-0.4-1.3-1-0.4-0.5-1.9-1.2-3.5-1.5-1.6-0.3-3.3-1.1-3.7-1.7-0.4-0.6-1.2-0.8-1.9-0.4q-1.3 0.7-0.6-0.3c0.7-1.1-0.7-1.6-4.1-1.5-0.7 0.1-1.3-0.2-1.3-0.6 0-1-6.9-4.5-7.7-3.8-0.3 0.4-1.1 0-1.7-0.9-0.6-0.8-2.4-1.6-3.9-1.8-1.5-0.1-3-0.6-3.4-0.9-0.3-0.4-1.5-0.7-2.5-0.7-1 0-1.8-0.5-1.8-1 0-1.1-4.3-3.1-7.2-3.3-1-0.1-1.8-0.5-1.8-1 0-0.4-0.4-0.5-1-0.2-0.5 0.3-1 0.1-1-0.4 0-1.3-7.4-6.1-9.4-6.1-0.8 0-1.8 0.6-2.3 1.2z"/>
		<path id="Layer" class="s0" d="m1273.9 1293.2c0 0.2-0.2 1.5-0.4 3-0.4 3.2 1.7 3.8 4.3 1.2 1.5-1.5 1.4-1.8-0.3-3-1.7-1.3-3.4-1.8-3.6-1.2z"/>
		<path id="Layer" class="s0" d="m1225 1339.6c-1.4 3.6-1.3 4.2 1.1 4.9 2.6 0.9 6-2.5 5.3-5.2-0.8-3-5.2-2.8-6.4 0.3z"/>
		<path id="Layer" fill-rule="evenodd" class="s0" d="m260.5 1464.1c1.1 0.4 4 1.3 6.5 2 8.1 2.3 14 10.5 14 19.6 0 5.3-2.6 16-4.3 17.8-0.7 0.7-1.9 2.3-2.7 3.5-2.8 4.3-7.9 10.9-10 13-1.6 1.6-2 3.3-2 8 0 3.5 0.4 6 1.1 6 1.3 0 5.5 9.5 6.5 14.5 0.4 2.2 0.2 5.2-0.6 7.5-1.1 3.5-1.7 3.9-5.6 4.5-6.8 1-13-3.4-17-12-1-2.1-3.7-5.9-6-8.3-6.2-6.4-7.8-5.8-13.4 5.1-4.8 9.4-7.2 11.6-12.7 11.7-2.5 0-3.8-0.8-5.7-3.3-4.5-5.9-3.2-15.8 4.4-34.1 2.2-5.3 4.5-10.5 5-11.4 3.9-7.3 6.1-13.8 6.9-20.5 1.3-10.7 3.9-14.5 12.8-18.8 3.7-1.8 10-3.8 13.8-4.4 3.9-0.6 7.9-0.8 9-0.4zm-10.4 29c-2.9 3.2-2.8 6.3 0.2 5.4 2.9-0.9 4.5-2.5 4.9-5 0.4-2.8-2.6-3-5.1-0.4z"/>
		<path id="Layer" class="s0" d="m84.5 1465.7c-3.5 0.9-6.5 4.5-8.2 10-1.6 5.1-1.6 5.6 0.1 10.4 2.2 6 1.9 6.4-5.5 8.9-4.9 1.5-5.6 2.2-8.3 7.3l-2.9 5.5 1.6 6.4 1.6 6.3-4.9 10c-6.2 12.9-8 17.3-7.5 18.8 0.2 0.6 0.6 2.4 0.9 3.8 0.4 1.9 1.6 2.9 4.5 3.9 6.6 2.2 12.4-0.8 16.2-8.2 1.2-2.3 2.5-4.6 3-5.2 2.8-3.2 8.9-12.1 8.9-12.8 0-1.8 8.4-6.8 11.5-6.8 6 0 9.4-1.2 12.9-4.6 4.9-4.7 6.5-10.3 4.3-15-0.9-1.9-2.8-3.9-4.1-4.5-2.8-1.3-3.9-4.4-2.1-5.9 0.6-0.5 4.9-1.6 9.4-2.4 10.6-1.9 13.3-4.1 14.5-11.9 0.5-3.3 0.2-4.2-2.7-7.2-3-3.3-3.8-3.6-12.2-4.5-4.9-0.6-12.4-1.4-16.5-2-8-1-11.3-1.1-14.5-0.3z"/>
		<path id="Layer" fill-rule="evenodd" class="s0" d="m397.4 1468.9c2.9 1.3 5 3.1 6.1 5.1 2.4 4.6 3.5 17.7 3.5 39.3 0 10.6 0 22.3 0 26.2 0 11.3-0.7 14.1-4.5 16.9-3.7 2.8-7.8 3.3-12.2 1.4-4.3-1.8-6.3-3.9-6.3-6.5 0-6.1-6-12.3-11.9-12.3-5.7 0-8.8 2.6-14.1 11.6-2.1 3.6-4.1 5.6-6.9 6.8-3.6 1.7-4.1 1.7-7 0.1-5-2.5-6.5-8.9-3.7-15.6 0.7-1.9 1.7-7.2 2.1-11.9 0.8-9.9 2.7-14.6 6.9-17.1 3.6-2.1 7.3-6.8 16.1-20.2 8.9-13.6 15.9-22.2 19.7-24 4.3-2.2 6.7-2.1 12.2 0.2zm-15.6 26.2c-8.9 9.5-8.7 11.8 1 13.6 5.1 1 5.4 0.9 7-1.5 1.7-2.6 2.1-11.7 0.7-16.1-1-3.3-2.5-2.6-8.7 4z"/>
		<path id="Layer" class="s0" d="m627.4 1470.9c-3.3 2-4.1 3.7-7.3 14.6-4.1 14.5-5 17.3-9.1 28.5-2.3 6.3-5.3 14.6-6.6 18.5-1.3 3.8-2.9 7.8-3.5 8.8-0.5 1-1.3 4.7-1.6 8.3-0.7 7.5 0.6 9.3 6.8 9.4 5 0 8-2.7 12-10.6 1.8-3.7 4.4-8 5.7-9.5 4-4.8 5.6-3.9 10.2 5.6 4.9 10.1 9.5 14.9 14.8 15.3 6.7 0.5 7.7 0.3 9.5-1.9 2.3-2.8 2.2-7.7-0.4-14.7-1.1-3.1-2.5-7.3-3.1-9.2-0.5-1.9-1.5-4.1-2-4.7-0.6-0.7-1.2-4.1-1.5-7.5-0.4-7.2-0.3-7.3 9.2-15.2 16.5-13.7 17.4-14.6 18.5-18.6 1.8-6.7-1.3-11.2-7.8-11.3-3.6-0.1-16.3 5.4-20.2 8.7-0.8 0.7-3 1.8-4.7 2.4-2.9 1-3.4 0.8-4.8-1.1-0.8-1.2-1.5-3.6-1.5-5.5 0-3.9-1.4-6.8-4.7-10-2.9-2.7-3.9-2.7-7.9-0.3z"/>
		<path id="Layer" fill-rule="evenodd" class="s0" d="m175 1470.6c6.2 0.6 9.2 2.2 11.7 6.1 1 1.5 3.6 4.3 5.7 6.3 5.3 4.8 7.6 10.3 8.1 19.7 0.7 14.1-4.1 27.7-14.8 42.3-7.7 10.5-19.4 19.3-27.4 20.6-13.8 2.2-23.7-7.5-27.8-27.3-2.7-13.1 0.4-31.7 7-41.6 6.9-10.5 19.9-22.3 27.5-25 3.1-1.1 6.3-1.5 10-1.1zm-14.2 36.2c-4.6 5.1-6.3 8.3-7.8 15.2-1 4.7-1 6.1 0.3 9.3 2.6 6.1 6.5 6.2 13 0.3 5.7-5 7.8-9.9 8.4-18.7 0.5-6.9 0.3-7.9-1.6-9.8-3.4-3.4-6.8-2.4-12.3 3.7z"/>
		<path id="Layer" class="s0" d="m448 1472.1c-4.8 2.6-6.1 4.4-9.4 13-1.5 4.1-3.4 8.7-4.1 10.4-0.7 1.6-2 5.7-3 9-1 3.3-2.2 7.1-2.7 8.5-5.8 14.9-8.2 31.8-5.5 38.3 3.7 8.8 18.8 12.8 31.4 8.1 9.1-3.3 12.5-9.1 10.3-17.2-1.4-5.2-5.6-8.2-11.6-8.2-2.4 0-4.7-0.6-5.4-1.5-1.5-1.8-1.5-8.8 0-13.5 0.6-1.9 1.4-4.9 1.7-6.5 0.2-1.7 2.2-8 4.2-14 2.1-6.1 3.8-11.2 3.9-11.5 0-0.3 0.5-1.8 1.1-3.3 3.6-9.3-2.8-16.1-10.9-11.6z"/>
		<path id="Layer" class="s0" d="m756.5 1472.8c-2.8 1.7-8.5 8.2-8.5 9.7 0 0.3-1.4 3.4-3.1 6.8-1.7 3.4-3.7 8.2-4.6 10.7-1.6 5.1-2.7 7.5-9.3 21.5-2.6 5.5-5.1 11.1-5.5 12.5-0.4 1.4-1.1 2.9-1.5 3.5-1.6 2-3.7 12.2-3.2 15.4 0.9 6.6 8.7 7.9 14.4 2.4 2.9-2.8 3.8-4.1 7.8-12 4.5-8.8 9.5-11.6 12.4-7.1 0.8 1.3 2.4 6.1 3.7 10.7 2.7 10.4 5.1 13.4 10.6 13.4 4.5 0 7.9-1.9 9.7-5.5 0.7-1.2 2.6-4.8 4.3-7.8 1.6-3 3.6-7.1 4.3-9 0.7-1.9 1.9-4.2 2.5-5 0.7-0.8 1.5-2.8 1.9-4.4 0.4-1.7 2.4-5.9 4.5-9.5 6.5-11.3 15.7-29.5 16.5-32.4 0.6-2.7-0.7-6.5-2.8-8-1.7-1.1-8.8 0.3-11.7 2.4-2.6 1.8-9.9 14.7-9.9 17.4 0 0.8-0.7 1.5-1.5 1.5-0.8 0-1.4 0.3-1.3 0.7 0.5 1.7-2.5 5.4-4.9 6.4-3.1 1.1-5.6-0.5-4.8-3.1 0.3-0.9-0.1-2.2-0.8-2.9-0.9-0.7-1.7-4.4-2.2-10.2-0.8-11.3-2.8-15.3-9.2-18.8-2.9-1.5-4.3-1.4-7.8 0.7z"/>
		<path id="Layer" class="s0" d="m510.5 1473.2c-5.9 3.5-8.9 10.7-17.9 43.2-4.4 15.6-6 25.4-5.2 31 0.9 5.5 5.8 11 12 13.4 4.5 1.7 5.5 1.8 12.5 0.5 4.2-0.8 8.6-1.5 9.7-1.7 3.5-0.5 9.5-4.7 10.5-7.3 1.1-2.9 1.2-11.4 0.1-12.8-2.4-3.4-5.8-5-11.7-5.6-3.6-0.3-7.2-1.2-8-1.9-1.9-1.6-1.9-6.2 0-12 0.8-2.5 2.6-8.6 4.1-13.5 1.4-5 3.2-11.3 4.1-14 1.8-6.1 2.2-17 0.7-18.5-1.7-1.7-8.6-2.2-10.9-0.8z"/>
		<path id="Layer" fill-rule="evenodd" class="s0" d="m853 1473.5c8.8 0.1 9.9 0.3 15.1 3.4 6.8 4.1 7.9 5.7 9.6 14.6 1.7 9.3 1.6 15.9-0.3 20.3-7.1 15.8-8.5 18-16.6 26.3-4.6 4.8-9.5 9.3-11 10-1.4 0.8-5.2 2.9-8.3 4.7-3 1.9-6.1 3.5-6.8 3.6-0.7 0.1-1.8 0.5-2.4 0.9-0.7 0.5-1.7 0.5-2.3 0.2-0.5-0.3-1-0.2-1 0.2 0 2.2-14.3 2-17.7-0.2-2.5-1.6-2.5-2-2-8.4 0.3-4 2.4-12.3 5.1-20.4 2.5-7.6 4.6-14.4 4.6-15.3 0-0.9 0.7-3.2 1.7-5.1 1.4-2.9 1.4-4.2 0.5-8.5-1.9-8.1-1.6-10.4 2.4-14.8 4.1-4.5 7.1-6.4 16.9-10.5 1.7-0.7 6.8-1.1 12.5-1zm-0.9 25.5c-4.4 0-5.5 1-10 9.3-3.5 6.4-5.6 15.9-4.1 18.7 0.7 1.4 1.7 1.6 4.7 1 5.6-1 8-2.8 12.4-9.4 4.4-6.5 5-11.1 2.3-16.4-1.3-2.7-2.1-3.2-5.3-3.2z"/>
		<path id="Layer" class="s0" d="m924.5 1476.9c-7.2 3.1-17.5 10.4-23.2 16.3-6.3 6.6-7.8 15.5-3.5 21.6 1.2 1.6 2.2 3.5 2.2 4 0 0.6 0.4 1.2 0.8 1.4 0.5 0.1 2.5 2.9 4.7 6.1l3.8 5.9-1.7 3.5c-0.9 1.9-4.2 5.8-7.2 8.6-5.1 4.8-9.4 11.3-9.4 14.3 0 0.7 1.1 2.5 2.4 4 4.5 5.3 15.2 3.2 23.7-4.8 1.6-1.4 2.9-2.3 2.9-2 0 0.4 2.4-1.9 5.4-5 3.2-3.4 5.6-6.9 6-8.8 0.9-4.7 0.7-14.5-0.3-15.6-0.8-0.8-4.4-7.2-8.9-15.7-2-4-0.3-6.9 7.3-12 6.8-4.6 7.9-5.8 10-10.6 2.8-6.4 1.4-11-3.9-13.1-3.6-1.3-4.1-1.3-11.1 1.9z"/>
		<path id="Layer" fill-rule="evenodd" class="s0" d="m1044.7 1474.1c3.6-0.1 4.8 0.5 8.2 3.6 4.9 4.6 10.3 13.3 12 19.4 2 7.2 0.2 16.9-5.3 28.2-2.5 5.1-4.6 9.9-4.6 10.5 0 0.7-0.5 1.2-1.1 1.2-0.6 0-4.3 3.2-8.1 7.1-12.7 12.9-27.3 17.3-38.5 11.7-4.8-2.4-5.7-3.6-8.6-11.3-4.7-12.2-1.2-35.5 6.9-46.2 1.3-1.7 2.4-3.5 2.4-3.8 0-1.8 14.3-13.3 19-15.2 1.9-0.8 4.9-2.1 6.5-2.8 1.7-0.8 3.9-1.6 5-1.8 1.1-0.3 3.9-0.5 6.2-0.6zm-7.6 24c-7.8 0.5-15.4 6.1-19.6 14.3-2.6 5.2-2.7 5.9-2 14.1 0.7 8.7 0.7 8.7 4.1 10.1 4.9 2.1 6.9 1.8 12.4-1.9 3.7-2.4 5.6-4.7 7.9-9.2 6.4-12.9 6.8-19 1.6-24.5-1.6-1.7-3.6-3-4.4-2.9z"/>
		<path id="Layer" class="s0" d="m1094.3 1475c-1.2 0.5-3.5 2.8-5 5.1-2.2 3.4-2.8 5.5-2.9 10.3-0.1 3.4-0.2 6.7-0.3 7.3-0.1 0.7-2.3 3.7-5 6.7-4 4.5-5.1 6.4-5.6 10.3-0.3 2.6-0.8 5.7-1 6.7-0.2 1.1 0.1 2.9 0.7 4 0.7 1.3 1 5.3 0.8 10.1-0.2 4.4-0.4 11.6-0.4 16l-0.1 8 4.2 1.4c4 1.4 4.2 1.4 7.5-1.1 2.5-1.9 3.9-4.2 5.6-9.5 1.2-3.8 2.2-7.5 2.2-8.1 0-2.1 5.4-8.9 8-10 1.4-0.6 5.2-1.8 8.6-2.5 9-2.1 10.1-3 11.3-8.8 0.6-2.7 0.8-6.1 0.5-7.3-0.6-2.5-4.1-4.6-7.5-4.6-1.1 0-3.5-1.4-5.2-3.1l-3.1-3.2 2.9-2.3c1.6-1.2 3.1-2.2 3.4-2.1 0.9 0.2 15-1.3 18.9-2 3.8-0.6 6-3.4 7.3-9.3 1.3-5.9 0.3-8.8-3.8-10.5-4.2-1.8-38.5-3-42-1.5z"/>
		<path id="Layer" class="s0" d="m707.2 1480.9c-3.7 3.8-5.4 6.8-7.9 13.7-2.8 8.2-11.1 27.7-16.8 39.9-3.1 6.8-4.5 12.1-4.5 17.8 0 4.3 0.3 4.9 2.8 5.8 3.2 1.3 8.5 0.6 11.7-1.5 2.5-1.7 8.9-10.9 10-14.6 0.4-1.4 3.3-7.9 6.5-14.5 3.1-6.6 6.5-14.9 7.5-18.5 0.9-3.6 2.8-9.9 4.1-14 4.2-13.1 2.7-19-4.7-19-3.5 0-4.6 0.6-8.7 4.9z"/>
		<path id="Layer" class="s0" d="m1228.5 1478c-1.1 0.5-3.2 0.9-4.6 0.9-3.4 0.1-6.7 3.8-8.5 9.6-2.1 7.1-1.8 9.5 1.8 13.2 2.8 2.9 3 3.5 2 5.7-0.6 1.4-2.4 3.2-4.1 4-5.9 3.1-9.2 12.5-6.9 20 1.6 5.4 1 15-1.3 22.3-2 6.1 1.9 12.3 7.7 12.3 3.4 0 8.8-7.7 11.5-16.5 2-6.6 4.8-11.5 7.3-12.5 1.3-0.4 4.3-1.1 6.8-1.3 6-0.7 8.5-2.3 11.1-7.2 3-5.9 2.5-11.3-1.6-14.7-1.8-1.5-4-3.5-4.9-4.3-1.9-1.6-2.3-4.2-1-6.3 0.5-0.7 3.5-1.7 6.8-2.3 11.5-2.1 13.4-2.9 15.4-6.2 2.4-3.8 2.6-10.4 0.4-13.2-1.2-1.6-3.2-2.2-9.7-2.8-13.9-1.3-26.1-1.6-28.2-0.7z"/>
		<path id="Layer" class="s0" d="m1410.9 1478.5c-3.5 1.9-6 6.3-8.9 15.5-3.7 12-5.9 16.5-8.8 18.2-9.4 5.6-12.2 12.5-8.8 22.1 1.3 3.8 1.2 4.6-1.3 17.4-1.4 6.7-1.3 13.4 0.2 16.2 1.4 2.9 5.8 4.4 10.3 3.6 2.6-0.5 3.6-1.5 5.8-5.9 1.4-2.9 2.6-6 2.6-6.7 0-0.8 0.4-1.9 0.9-2.5 0.4-0.5 1.5-3 2.4-5.6 1.7-5.3 7.2-13.7 9-14 4.1-0.5 7.4-0.1 8.4 1.2 1.5 1.8 1.6 6.4 0.3 11-0.5 1.9-1.3 6.9-1.6 11.1-0.6 7.4-0.6 7.8 1.9 10.3 3.1 3.1 7.7 3.4 12.6 1 5.3-2.6 6-4.3 12.7-28.4 1.2-4.7 2.7-9.9 3.3-11.5 9.7-30.6 12.6-45.4 9.9-50.5-1.7-3.1-7.7-3.9-11.4-1.6-2.2 1.5-10.3 16.6-10.5 19.7-0.1 2.3-3.3 7.1-6.1 9.2-3.4 2.6-10 1.6-12.2-1.8-1.4-2.1-1.4-3.9-0.6-12.3 1.3-12.8-0.1-17.2-5.5-17.1-1.1 0-3.2 0.6-4.6 1.4z"/>
		<path id="Layer" class="s0" d="m1358.4 1481.8c-11 6.7-23.5 18.3-26.1 24.2-2.8 6.3-1.8 15.1 2.8 25.3 3.7 8.2 3.9 9.3 2.8 12-0.7 1.6-2.2 3.9-3.3 5.1-9.6 9.9-12.2 16.1-9 21.5 1.7 2.8 8.4 7.1 11 7.1 2.3 0 10.4-6.3 19.1-14.9 7.1-7 9.4-9.9 9.9-12.6 0.9-5 0.1-12.3-2-17-1-2.2-2.5-5.6-3.4-7.5-0.8-1.9-1.9-4.3-2.3-5.2-2.3-4.6 0-8.8 8.8-16.2 11.2-9.4 13-13.1 9.7-20-3.2-6.6-9.1-7.2-18-1.8z"/>
		<path id="Layer" class="s0" d="m1304.9 1481c-8.4 2.5-10.8 6.9-19 35.5-6 21-9 30.9-10.4 33.5-2.3 4.4-1.9 15.9 0.5 18.8 3.9 4.7 15.2 3.3 18.2-2 2.7-5 7.2-18.6 8.9-27.3 0.5-2.8 1.3-5.9 1.8-7 4.5-10.6 9.8-27.3 10.6-33 0.3-2.8 1.1-6.2 1.7-7.7 0.7-1.9 0.6-3.7-0.2-6.2-1.1-3.5-1.5-3.7-8-5.1-0.8-0.2-2.7 0-4.1 0.5z"/>
		<path id="Layer" class="s0" d="m1619 1483.5c-7 2-9.8 3.2-14.8 6.7-6.5 4.5-10.2 7.9-11.7 10.8-0.8 1.4-2.4 3.6-3.7 5-4.2 4.7-10.7 19.1-11.5 25.5-0.9 8.3-0.4 28.3 0.9 32.5 4.8 15.6 7.8 20 16 23.1 8.6 3.2 18.9 3.3 24.1 0 9.7-6 17.4-20.5 19.3-36.3 0.8-6.8-0.6-11-4.6-13.8-2.2-1.6-4.4-2-10.5-2-11.7 0-17 3.3-19.7 12.3l-1.2 4 4.7 4.1c5.2 4.5 6.3 8.7 2.8 10.6-7.5 4-15.5-6.4-15.3-19.9 0.2-5.6 2-14.8 3.7-18.1 0.7-1.4 2.3-4.5 3.5-7 4.7-9.3 13.1-15.1 16.9-11.6 0.9 0.8 2.2 4.2 2.9 7.4 1.9 9 6.9 12.3 11.4 7.5 3.9-4.2 5.8-8.7 6.6-15.6 1.5-12.7-0.6-18.5-8.4-23.9-4.4-3.1-5.1-3.1-11.4-1.3z"/>
		<path id="Layer" class="s0" d="m1488.3 1483.7c-4.5 1.8-12.4 22.1-19.9 51.3-7.3 28.4-7.6 35.3-1.3 38.5 3.3 1.8 7 1.2 9.5-1.6 1.8-2 6.4-15 8.4-23.9 0.7-3 1.6-6 2-6.5 1.4-1.8 5-13.5 5-16 0-1.3 0.4-3.4 0.9-4.7 0.5-1.3 1.7-5 2.6-8.3 1-3.3 2.8-9.2 4.1-13 2.7-8.3 2.2-13.3-1.6-15.2-2.5-1.3-7.4-1.6-9.7-0.6z"/>
		<path id="Layer" class="s0" d="m1523.2 1487.5c-1.9 2.4-8.7 18.2-11.2 26-0.7 2.2-2.1 6-3.2 8.5-1 2.5-2.3 5.4-2.8 6.5-0.8 1.9-1.4 4.3-4.5 16.5-0.8 3-2.1 8-3 11-2 7.3-2 18.3 0 20 2.3 1.9 7.6 2 10.6 0.3 2.2-1.4 8.9-13.6 8.9-16.5 0-1.3 3.8-8.6 4.9-9.3 1.9-1.1 5 3.8 7.7 12.3 1.5 4.8 3.6 9.9 4.6 11.5 5.1 7.3 14.2 7 17.3-0.6 3.1-7.6 3.5-8.8 3.5-11 0-2.2 4.9-17.4 10.4-32.5 1.5-4.1 2.8-8.4 3-9.5 0.1-1.2 0.7-3.3 1.3-4.7 1.1-2.3 1.9-5.4 5.3-20.9 1.1-4.9 1.1-5.5-0.8-7.3-2.2-2.3-5.3-2.6-9.4-0.9-3.2 1.2-9.7 9.7-9.8 12.6 0 1.1-0.9 3.8-2 6-1.1 2.2-1.9 4.6-2 5.2 0 0.7-0.9 2.2-2 3.3-1.6 1.6-2.5 1.8-4 1-1.1-0.6-2-1.9-2-2.8 0-1-0.5-2.3-1-2.8-0.6-0.6-1.3-3.5-1.7-6.5-0.3-3-0.9-5.9-1.3-6.4-0.4-0.6-1-2.2-1.3-3.6-1.8-7.4-11.3-10.7-15.5-5.4z"/>
	</g>
</svg>